%TF.GenerationSoftware,KiCad,Pcbnew,9.0.3*%
%TF.CreationDate,2025-12-31T10:25:08+01:00*%
%TF.ProjectId,REG1-App-OneWire,52454731-2d41-4707-902d-4f6e65576972,V01.10*%
%TF.SameCoordinates,Original*%
%TF.FileFunction,Copper,L2,Bot*%
%TF.FilePolarity,Positive*%
%FSLAX46Y46*%
G04 Gerber Fmt 4.6, Leading zero omitted, Abs format (unit mm)*
G04 Created by KiCad (PCBNEW 9.0.3) date 2025-12-31 10:25:08*
%MOMM*%
%LPD*%
G01*
G04 APERTURE LIST*
G04 Aperture macros list*
%AMRoundRect*
0 Rectangle with rounded corners*
0 $1 Rounding radius*
0 $2 $3 $4 $5 $6 $7 $8 $9 X,Y pos of 4 corners*
0 Add a 4 corners polygon primitive as box body*
4,1,4,$2,$3,$4,$5,$6,$7,$8,$9,$2,$3,0*
0 Add four circle primitives for the rounded corners*
1,1,$1+$1,$2,$3*
1,1,$1+$1,$4,$5*
1,1,$1+$1,$6,$7*
1,1,$1+$1,$8,$9*
0 Add four rect primitives between the rounded corners*
20,1,$1+$1,$2,$3,$4,$5,0*
20,1,$1+$1,$4,$5,$6,$7,0*
20,1,$1+$1,$6,$7,$8,$9,0*
20,1,$1+$1,$8,$9,$2,$3,0*%
G04 Aperture macros list end*
%TA.AperFunction,ComponentPad*%
%ADD10RoundRect,0.250000X-1.550000X0.650000X-1.550000X-0.650000X1.550000X-0.650000X1.550000X0.650000X0*%
%TD*%
%TA.AperFunction,ComponentPad*%
%ADD11O,3.600000X1.800000*%
%TD*%
%TA.AperFunction,ComponentPad*%
%ADD12RoundRect,0.250000X1.550000X-0.650000X1.550000X0.650000X-1.550000X0.650000X-1.550000X-0.650000X0*%
%TD*%
%TA.AperFunction,ComponentPad*%
%ADD13R,1.700000X1.700000*%
%TD*%
%TA.AperFunction,ComponentPad*%
%ADD14O,1.700000X1.700000*%
%TD*%
%TA.AperFunction,ViaPad*%
%ADD15C,0.600000*%
%TD*%
%TA.AperFunction,Conductor*%
%ADD16C,0.300000*%
%TD*%
%TA.AperFunction,Conductor*%
%ADD17C,0.160000*%
%TD*%
G04 APERTURE END LIST*
D10*
%TO.P,J10,1,Pin_1*%
%TO.N,/OneWire/1WIRE_GND*%
X76500000Y-98600000D03*
D11*
%TO.P,J10,2,Pin_2*%
%TO.N,/OneWire/1WIRE_DATA*%
X76500000Y-102100000D03*
%TO.P,J10,3,Pin_3*%
%TO.N,/OneWire/1WIRE_VDD*%
X76500000Y-105600000D03*
%TO.P,J10,4,Pin_4*%
%TO.N,/OneWire/1WIRE_GND*%
X76500000Y-109100000D03*
%TO.P,J10,5,Pin_5*%
%TO.N,/OneWire/1WIRE_DATA*%
X76500000Y-112600000D03*
%TO.P,J10,6,Pin_6*%
%TO.N,/OneWire/1WIRE_VDD*%
X76500000Y-116100000D03*
%TD*%
D12*
%TO.P,J2,1,Pin_1*%
%TO.N,Net-(J2-Pin_1)*%
X146500000Y-112660000D03*
D11*
%TO.P,J2,2,Pin_2*%
%TO.N,/OneWire/BI1_ISO*%
X146500000Y-109160000D03*
%TO.P,J2,3,Pin_3*%
%TO.N,Net-(J2-Pin_3)*%
X146500000Y-105660000D03*
%TO.P,J2,4,Pin_4*%
%TO.N,/OneWire/BI2_ISO*%
X146500000Y-102160000D03*
%TD*%
D13*
%TO.P,J1,1,GP16*%
%TO.N,unconnected-(J1-GP16-Pad1)*%
X130760000Y-94300000D03*
D14*
%TO.P,J1,2,GP17*%
%TO.N,/OneWire/BI2*%
X128220000Y-94300000D03*
%TO.P,J1,3,GP18*%
%TO.N,/OneWire/BI1*%
X125680000Y-94300000D03*
%TO.P,J1,4,GP26*%
%TO.N,/OneWire/I2C1_SDA*%
X123140000Y-94300000D03*
%TO.P,J1,5,GP27*%
%TO.N,/OneWire/I2C1_SCL*%
X120600000Y-94300000D03*
%TO.P,J1,6,GP28*%
%TO.N,/OneWire/1WIRE_ENABLE_5V*%
X118060000Y-94300000D03*
%TO.P,J1,7,GP29*%
%TO.N,/OneWire/1WIRE_FAULT*%
X115520000Y-94300000D03*
%TO.P,J1,8,GND*%
%TO.N,/OneWire/GND*%
X112980000Y-94300000D03*
%TO.P,J1,9,3V3*%
%TO.N,/OneWire/3V3*%
X110440000Y-94300000D03*
%TO.P,J1,10,VCC2*%
%TO.N,/OneWire/VCC2*%
X107900000Y-94300000D03*
%TD*%
D15*
%TO.N,/OneWire/3V3*%
X111630000Y-97760000D03*
%TO.N,/OneWire/1WIRE_ENABLE_5V*%
X115830000Y-97850000D03*
%TO.N,/OneWire/VCC2*%
X102380000Y-97940000D03*
%TO.N,GND_ISO*%
X85475000Y-115335000D03*
X82870000Y-105000000D03*
X101210000Y-112670000D03*
X144560000Y-100500000D03*
X86150000Y-106850000D03*
X114510000Y-112760000D03*
X89050000Y-110270000D03*
X144560000Y-107460000D03*
X109020000Y-114580000D03*
X88680000Y-117870000D03*
X130590000Y-110120000D03*
%TO.N,VCC2_ISO*%
X110980000Y-113620000D03*
X144560000Y-103850000D03*
X125430000Y-113600000D03*
X102480000Y-113620000D03*
X144560000Y-110850000D03*
X118330000Y-113600000D03*
%TO.N,MIC2090_FAULT*%
X96760000Y-114860000D03*
X99760000Y-114860000D03*
%TO.N,/OneWire/1WIRE_FAULT*%
X106270000Y-98340000D03*
%TO.N,/OneWire/1WIRE_ENABLE_5V*%
X107549900Y-98340000D03*
%TO.N,/OneWire/3V3*%
X121880000Y-96680000D03*
X119990000Y-98660000D03*
%TO.N,MIC2090_EN*%
X96990000Y-115800000D03*
X100660000Y-115800000D03*
%TO.N,/OneWire/BI2*%
X103739900Y-98340000D03*
%TO.N,/OneWire/BI1*%
X105009900Y-98340000D03*
%TO.N,Net-(U4-VI3)*%
X112610000Y-115940000D03*
X105009900Y-114360000D03*
%TO.N,Net-(U4-VI4)*%
X103750000Y-114360000D03*
X111460000Y-116870000D03*
%TD*%
D16*
%TO.N,/OneWire/1WIRE_ENABLE_5V*%
X111860000Y-96800000D02*
X109089900Y-96800000D01*
X115830000Y-97850000D02*
X112910000Y-97850000D01*
X112910000Y-97850000D02*
X111860000Y-96800000D01*
X109089900Y-96800000D02*
X107549900Y-98340000D01*
%TO.N,/OneWire/3V3*%
X119990000Y-98660000D02*
X112530000Y-98660000D01*
X112530000Y-98660000D02*
X111630000Y-97760000D01*
X119990000Y-98660000D02*
X119990000Y-98570000D01*
X119990000Y-98570000D02*
X121880000Y-96680000D01*
%TO.N,/OneWire/1WIRE_FAULT*%
X115520000Y-94300000D02*
X113815000Y-96005000D01*
X113815000Y-96005000D02*
X108605000Y-96005000D01*
X108605000Y-96005000D02*
X106270000Y-98340000D01*
%TO.N,/OneWire/3V3*%
X110440000Y-94570000D02*
X110440000Y-94300000D01*
%TO.N,/OneWire/VCC2*%
X107840000Y-94360000D02*
X107900000Y-94300000D01*
X106020000Y-94300000D02*
X107900000Y-94300000D01*
X102380000Y-97940000D02*
X106020000Y-94300000D01*
%TO.N,/OneWire/1WIRE_GND*%
X77439400Y-109100000D02*
X76500000Y-109100000D01*
%TO.N,VCC2_ISO*%
X118330000Y-113600000D02*
X125430000Y-113600000D01*
X118310000Y-113620000D02*
X118330000Y-113600000D01*
X110980000Y-113620000D02*
X103410000Y-113620000D01*
X142970000Y-109170000D02*
X142970000Y-105350000D01*
X117730000Y-113620000D02*
X118310000Y-113620000D01*
X144560000Y-110850000D02*
X144560000Y-110760000D01*
X110980000Y-113620000D02*
X117730000Y-113620000D01*
X143060000Y-105350000D02*
X144560000Y-103850000D01*
X144560000Y-110760000D02*
X142970000Y-109170000D01*
X103410000Y-113620000D02*
X102540000Y-113620000D01*
X102540000Y-113620000D02*
X102480000Y-113560000D01*
%TO.N,MIC2090_FAULT*%
X96760000Y-114860000D02*
X99760000Y-114860000D01*
%TO.N,MIC2090_EN*%
X96990000Y-115800000D02*
X100660000Y-115800000D01*
%TO.N,/OneWire/BI2*%
X125010000Y-100790000D02*
X126290000Y-100790000D01*
X106189900Y-100790000D02*
X125010000Y-100790000D01*
X126290000Y-100790000D02*
X128220000Y-98860000D01*
X103739900Y-98340000D02*
X106189900Y-100790000D01*
X128220000Y-98860000D02*
X128220000Y-94300000D01*
%TO.N,/OneWire/BI1*%
X105009900Y-98340000D02*
X106864900Y-100195000D01*
X106864900Y-100195000D02*
X124335000Y-100195000D01*
X125680000Y-98850000D02*
X125680000Y-94300000D01*
X124335000Y-100195000D02*
X125680000Y-98850000D01*
%TO.N,Net-(U4-VI3)*%
X112610000Y-115940000D02*
X106589900Y-115940000D01*
X106589900Y-115940000D02*
X105009900Y-114360000D01*
%TO.N,Net-(U4-VI4)*%
X111460000Y-116870000D02*
X106260000Y-116870000D01*
X106260000Y-116870000D02*
X103750000Y-114360000D01*
D17*
%TO.N,Net-(J2-Pin_3)*%
X144930000Y-105500000D02*
X146500000Y-105500000D01*
D16*
%TO.N,/OneWire/1WIRE_ENABLE_5V*%
X107769900Y-98120000D02*
X107549900Y-98340000D01*
%TD*%
%TA.AperFunction,Conductor*%
%TO.N,GND_ISO*%
G36*
X78833779Y-95570262D02*
G01*
X78841015Y-95575223D01*
X78959755Y-95662972D01*
X78986371Y-95689804D01*
X79065241Y-95798359D01*
X79201641Y-95934759D01*
X79357698Y-96048141D01*
X79529571Y-96135715D01*
X79635131Y-96170013D01*
X79670505Y-96188218D01*
X93696440Y-106553432D01*
X96991586Y-108988556D01*
X129873389Y-108938601D01*
X134829430Y-105290691D01*
X142519500Y-105290691D01*
X142519500Y-105290693D01*
X142519500Y-109229308D01*
X142543712Y-109319672D01*
X142550200Y-109343885D01*
X142550200Y-109343886D01*
X142575267Y-109387303D01*
X142609511Y-109446614D01*
X142609513Y-109446616D01*
X143923181Y-110760284D01*
X143956666Y-110821607D01*
X143959500Y-110847965D01*
X143959500Y-110929056D01*
X144000423Y-111081783D01*
X144000426Y-111081790D01*
X144079475Y-111218709D01*
X144079479Y-111218714D01*
X144079480Y-111218716D01*
X144191284Y-111330520D01*
X144191286Y-111330521D01*
X144191290Y-111330524D01*
X144289130Y-111387011D01*
X144328216Y-111409577D01*
X144471052Y-111447849D01*
X144530712Y-111484214D01*
X144561241Y-111547061D01*
X144552946Y-111616436D01*
X144537762Y-111642549D01*
X144465639Y-111737656D01*
X144410122Y-111878438D01*
X144404188Y-111927853D01*
X144399500Y-111966898D01*
X144399500Y-113353102D01*
X144403716Y-113388209D01*
X144410122Y-113441561D01*
X144465639Y-113582343D01*
X144557077Y-113702922D01*
X144677656Y-113794360D01*
X144677657Y-113794360D01*
X144677658Y-113794361D01*
X144818436Y-113849877D01*
X144906898Y-113860500D01*
X144906903Y-113860500D01*
X148093097Y-113860500D01*
X148093102Y-113860500D01*
X148181564Y-113849877D01*
X148322342Y-113794361D01*
X148442922Y-113702922D01*
X148534361Y-113582342D01*
X148589877Y-113441564D01*
X148600500Y-113353102D01*
X148600500Y-111966898D01*
X148589877Y-111878436D01*
X148534361Y-111737658D01*
X148534360Y-111737657D01*
X148534360Y-111737656D01*
X148442922Y-111617077D01*
X148322343Y-111525639D01*
X148181561Y-111470122D01*
X148135926Y-111464642D01*
X148093102Y-111459500D01*
X145099098Y-111459500D01*
X145032059Y-111439815D01*
X144986304Y-111387011D01*
X144976360Y-111317853D01*
X145005385Y-111254297D01*
X145011417Y-111247819D01*
X145040520Y-111218716D01*
X145119577Y-111081784D01*
X145160500Y-110929057D01*
X145160500Y-110770943D01*
X145119577Y-110618216D01*
X145119573Y-110618209D01*
X145040524Y-110481290D01*
X145040521Y-110481287D01*
X145040520Y-110481284D01*
X145040517Y-110481281D01*
X145037497Y-110477345D01*
X145012302Y-110412176D01*
X145026340Y-110343731D01*
X145075153Y-110293741D01*
X145143244Y-110278076D01*
X145174185Y-110283924D01*
X145274605Y-110316553D01*
X145318881Y-110330940D01*
X145505514Y-110360500D01*
X145505519Y-110360500D01*
X147494486Y-110360500D01*
X147681118Y-110330940D01*
X147860832Y-110272547D01*
X148029199Y-110186760D01*
X148182073Y-110075690D01*
X148315690Y-109942073D01*
X148426760Y-109789199D01*
X148512547Y-109620832D01*
X148570940Y-109441118D01*
X148590175Y-109319672D01*
X148600500Y-109254486D01*
X148600500Y-109065513D01*
X148570940Y-108878881D01*
X148512545Y-108699163D01*
X148426759Y-108530800D01*
X148315690Y-108377927D01*
X148182073Y-108244310D01*
X148029199Y-108133240D01*
X147860836Y-108047454D01*
X147681118Y-107989059D01*
X147494486Y-107959500D01*
X147494481Y-107959500D01*
X145505519Y-107959500D01*
X145505514Y-107959500D01*
X145318881Y-107989059D01*
X145139163Y-108047454D01*
X144970800Y-108133240D01*
X144900507Y-108184312D01*
X144817927Y-108244310D01*
X144817925Y-108244312D01*
X144817924Y-108244312D01*
X144684312Y-108377924D01*
X144684312Y-108377925D01*
X144684310Y-108377927D01*
X144636610Y-108443579D01*
X144573240Y-108530800D01*
X144487454Y-108699163D01*
X144429059Y-108878881D01*
X144399500Y-109065513D01*
X144399500Y-109254486D01*
X144429059Y-109441118D01*
X144487454Y-109620836D01*
X144573244Y-109789207D01*
X144574914Y-109791932D01*
X144575232Y-109793108D01*
X144575452Y-109793540D01*
X144575361Y-109793586D01*
X144593158Y-109859378D01*
X144572041Y-109925980D01*
X144518268Y-109970592D01*
X144448912Y-109979051D01*
X144385993Y-109948671D01*
X144381505Y-109944401D01*
X143456819Y-109019715D01*
X143423334Y-108958392D01*
X143420500Y-108932034D01*
X143420500Y-105677965D01*
X143429144Y-105648524D01*
X143435668Y-105618538D01*
X143439422Y-105613522D01*
X143440185Y-105610926D01*
X143456819Y-105590284D01*
X143481590Y-105565513D01*
X144399500Y-105565513D01*
X144399500Y-105754486D01*
X144429059Y-105941118D01*
X144487454Y-106120836D01*
X144573240Y-106289199D01*
X144684310Y-106442073D01*
X144817927Y-106575690D01*
X144970801Y-106686760D01*
X145021407Y-106712545D01*
X145139163Y-106772545D01*
X145139165Y-106772545D01*
X145139168Y-106772547D01*
X145225198Y-106800500D01*
X145318881Y-106830940D01*
X145505514Y-106860500D01*
X145505519Y-106860500D01*
X147494486Y-106860500D01*
X147681118Y-106830940D01*
X147860832Y-106772547D01*
X148029199Y-106686760D01*
X148182073Y-106575690D01*
X148315690Y-106442073D01*
X148426760Y-106289199D01*
X148512547Y-106120832D01*
X148570940Y-105941118D01*
X148580443Y-105881118D01*
X148600500Y-105754486D01*
X148600500Y-105565513D01*
X148570940Y-105378881D01*
X148512545Y-105199163D01*
X148467290Y-105110347D01*
X148426760Y-105030801D01*
X148315690Y-104877927D01*
X148182073Y-104744310D01*
X148029199Y-104633240D01*
X147860836Y-104547454D01*
X147681118Y-104489059D01*
X147494486Y-104459500D01*
X147494481Y-104459500D01*
X145505519Y-104459500D01*
X145505514Y-104459500D01*
X145318881Y-104489059D01*
X145139163Y-104547454D01*
X144970800Y-104633240D01*
X144900507Y-104684312D01*
X144817927Y-104744310D01*
X144817925Y-104744312D01*
X144817924Y-104744312D01*
X144684312Y-104877924D01*
X144684312Y-104877925D01*
X144684310Y-104877927D01*
X144658719Y-104913150D01*
X144573240Y-105030800D01*
X144487454Y-105199163D01*
X144429059Y-105378881D01*
X144399500Y-105565513D01*
X143481590Y-105565513D01*
X143574137Y-105472966D01*
X144057594Y-104989509D01*
X144560404Y-104486698D01*
X144621725Y-104453215D01*
X144631901Y-104451441D01*
X144639045Y-104450500D01*
X144639057Y-104450500D01*
X144791784Y-104409577D01*
X144928716Y-104330520D01*
X145040520Y-104218716D01*
X145119577Y-104081784D01*
X145160500Y-103929057D01*
X145160500Y-103770943D01*
X145119577Y-103618216D01*
X145119573Y-103618209D01*
X145040524Y-103481290D01*
X145040521Y-103481287D01*
X145040520Y-103481284D01*
X145040517Y-103481281D01*
X145037497Y-103477345D01*
X145012302Y-103412176D01*
X145026340Y-103343731D01*
X145075153Y-103293741D01*
X145143244Y-103278076D01*
X145174185Y-103283924D01*
X145274605Y-103316553D01*
X145318881Y-103330940D01*
X145505514Y-103360500D01*
X145505519Y-103360500D01*
X147494486Y-103360500D01*
X147681118Y-103330940D01*
X147860832Y-103272547D01*
X148029199Y-103186760D01*
X148182073Y-103075690D01*
X148315690Y-102942073D01*
X148426760Y-102789199D01*
X148512547Y-102620832D01*
X148570940Y-102441118D01*
X148580443Y-102381118D01*
X148600500Y-102254486D01*
X148600500Y-102065513D01*
X148570940Y-101878881D01*
X148512545Y-101699163D01*
X148426759Y-101530800D01*
X148315690Y-101377927D01*
X148182073Y-101244310D01*
X148029199Y-101133240D01*
X147860836Y-101047454D01*
X147681118Y-100989059D01*
X147494486Y-100959500D01*
X147494481Y-100959500D01*
X145505519Y-100959500D01*
X145505514Y-100959500D01*
X145318881Y-100989059D01*
X145139163Y-101047454D01*
X144970800Y-101133240D01*
X144900507Y-101184312D01*
X144817927Y-101244310D01*
X144817925Y-101244312D01*
X144817924Y-101244312D01*
X144684312Y-101377924D01*
X144684312Y-101377925D01*
X144684310Y-101377927D01*
X144636610Y-101443579D01*
X144573240Y-101530800D01*
X144487454Y-101699163D01*
X144429059Y-101878881D01*
X144399500Y-102065513D01*
X144399500Y-102254486D01*
X144429059Y-102441118D01*
X144487454Y-102620836D01*
X144573240Y-102789199D01*
X144684310Y-102942073D01*
X144684312Y-102942075D01*
X144793596Y-103051359D01*
X144827081Y-103112682D01*
X144822097Y-103182374D01*
X144780225Y-103238307D01*
X144714761Y-103262724D01*
X144673823Y-103258815D01*
X144639058Y-103249500D01*
X144639057Y-103249500D01*
X144480943Y-103249500D01*
X144328216Y-103290423D01*
X144328209Y-103290426D01*
X144191290Y-103369475D01*
X144191282Y-103369481D01*
X144079481Y-103481282D01*
X144079475Y-103481290D01*
X144000426Y-103618209D01*
X144000423Y-103618216D01*
X143959498Y-103770949D01*
X143958556Y-103778107D01*
X143930287Y-103842003D01*
X143923299Y-103849597D01*
X142883239Y-104889656D01*
X142827654Y-104921749D01*
X142796118Y-104930199D01*
X142796114Y-104930201D01*
X142693390Y-104989509D01*
X142693384Y-104989513D01*
X142609513Y-105073384D01*
X142609511Y-105073387D01*
X142550201Y-105176114D01*
X142519500Y-105290691D01*
X134829430Y-105290691D01*
X142530661Y-99622175D01*
X142596319Y-99598289D01*
X142604524Y-99598042D01*
X152850881Y-99629240D01*
X152917857Y-99649128D01*
X152963451Y-99702071D01*
X152974500Y-99753239D01*
X152974500Y-115609894D01*
X152974496Y-115610868D01*
X152951402Y-118551474D01*
X152931192Y-118618357D01*
X152878030Y-118663695D01*
X152827406Y-118674500D01*
X148608285Y-118674500D01*
X148600000Y-118674500D01*
X148564284Y-118674500D01*
X148564282Y-118674500D01*
X148564279Y-118674501D01*
X148531186Y-118685253D01*
X148491795Y-118691316D01*
X148340000Y-118689999D01*
X148374494Y-122242881D01*
X148374500Y-122244085D01*
X148374500Y-122686219D01*
X148354815Y-122753258D01*
X148302011Y-122799013D01*
X148250711Y-122810219D01*
X130864211Y-122839788D01*
X130797138Y-122820217D01*
X130751293Y-122767491D01*
X130740000Y-122715788D01*
X130740000Y-120403551D01*
X131874500Y-120403551D01*
X131874500Y-120596448D01*
X131904675Y-120786969D01*
X131904676Y-120786972D01*
X131964285Y-120970429D01*
X132051859Y-121142302D01*
X132165241Y-121298359D01*
X132301641Y-121434759D01*
X132457698Y-121548141D01*
X132629571Y-121635715D01*
X132813028Y-121695324D01*
X133003551Y-121725500D01*
X133003552Y-121725500D01*
X133196448Y-121725500D01*
X133196449Y-121725500D01*
X133386972Y-121695324D01*
X133570429Y-121635715D01*
X133742302Y-121548141D01*
X133898359Y-121434759D01*
X134034759Y-121298359D01*
X134148141Y-121142302D01*
X134235715Y-120970429D01*
X134295324Y-120786972D01*
X134325500Y-120596449D01*
X134325500Y-120403551D01*
X134295324Y-120213028D01*
X134235715Y-120029571D01*
X134148141Y-119857698D01*
X134034759Y-119701641D01*
X133898359Y-119565241D01*
X133742302Y-119451859D01*
X133570429Y-119364285D01*
X133386972Y-119304676D01*
X133386970Y-119304675D01*
X133386969Y-119304675D01*
X133240614Y-119281495D01*
X133196449Y-119274500D01*
X133003551Y-119274500D01*
X132967697Y-119280178D01*
X132813030Y-119304675D01*
X132629568Y-119364286D01*
X132457697Y-119451859D01*
X132393400Y-119498574D01*
X132301641Y-119565241D01*
X132301639Y-119565243D01*
X132301638Y-119565243D01*
X132165243Y-119701638D01*
X132165243Y-119701639D01*
X132165241Y-119701641D01*
X132139389Y-119737223D01*
X132051859Y-119857697D01*
X131964286Y-120029568D01*
X131904675Y-120213030D01*
X131874500Y-120403551D01*
X130740000Y-120403551D01*
X130740000Y-117819999D01*
X89520000Y-117789999D01*
X89519999Y-117790000D01*
X89508791Y-117950638D01*
X89498767Y-117986801D01*
X89499588Y-117987068D01*
X89474501Y-118064278D01*
X89474500Y-118064286D01*
X89474500Y-118437850D01*
X89474199Y-118446481D01*
X89468033Y-118534848D01*
X89443730Y-118600355D01*
X89387869Y-118642323D01*
X89344568Y-118650217D01*
X78840281Y-118669999D01*
X78839766Y-118669999D01*
X70149219Y-118650336D01*
X70082225Y-118630499D01*
X70036589Y-118577592D01*
X70025500Y-118526336D01*
X70025500Y-116005513D01*
X74399500Y-116005513D01*
X74399500Y-116194486D01*
X74429059Y-116381118D01*
X74487454Y-116560836D01*
X74573240Y-116729199D01*
X74684310Y-116882073D01*
X74817927Y-117015690D01*
X74970801Y-117126760D01*
X75050347Y-117167290D01*
X75139163Y-117212545D01*
X75139165Y-117212545D01*
X75139168Y-117212547D01*
X75235497Y-117243846D01*
X75318881Y-117270940D01*
X75505514Y-117300500D01*
X75505519Y-117300500D01*
X77494486Y-117300500D01*
X77681118Y-117270940D01*
X77860832Y-117212547D01*
X78029199Y-117126760D01*
X78182073Y-117015690D01*
X78315690Y-116882073D01*
X78426760Y-116729199D01*
X78512547Y-116560832D01*
X78570940Y-116381118D01*
X78578287Y-116334731D01*
X78600500Y-116194486D01*
X78600500Y-116005513D01*
X78570940Y-115818881D01*
X78512545Y-115639163D01*
X78452733Y-115521777D01*
X78426760Y-115470801D01*
X78315690Y-115317927D01*
X78182073Y-115184310D01*
X78029199Y-115073240D01*
X77860836Y-114987454D01*
X77681118Y-114929059D01*
X77494486Y-114899500D01*
X77494481Y-114899500D01*
X75505519Y-114899500D01*
X75505514Y-114899500D01*
X75318881Y-114929059D01*
X75139163Y-114987454D01*
X74970800Y-115073240D01*
X74945277Y-115091784D01*
X74817927Y-115184310D01*
X74817925Y-115184312D01*
X74817924Y-115184312D01*
X74684312Y-115317924D01*
X74684312Y-115317925D01*
X74684310Y-115317927D01*
X74661371Y-115349500D01*
X74573240Y-115470800D01*
X74487454Y-115639163D01*
X74429059Y-115818881D01*
X74399500Y-116005513D01*
X70025500Y-116005513D01*
X70025500Y-114780943D01*
X96159500Y-114780943D01*
X96159500Y-114939057D01*
X96174946Y-114996700D01*
X96200423Y-115091783D01*
X96200426Y-115091790D01*
X96279475Y-115228709D01*
X96279479Y-115228714D01*
X96279480Y-115228716D01*
X96391284Y-115340520D01*
X96411844Y-115352390D01*
X96460060Y-115402955D01*
X96473285Y-115471562D01*
X96457234Y-115521777D01*
X96430423Y-115568215D01*
X96430423Y-115568216D01*
X96389500Y-115720943D01*
X96389500Y-115879057D01*
X96427013Y-116019055D01*
X96430423Y-116031783D01*
X96430426Y-116031790D01*
X96509475Y-116168709D01*
X96509479Y-116168714D01*
X96509480Y-116168716D01*
X96621284Y-116280520D01*
X96621286Y-116280521D01*
X96621290Y-116280524D01*
X96715181Y-116334731D01*
X96758216Y-116359577D01*
X96910943Y-116400500D01*
X96910945Y-116400500D01*
X97069055Y-116400500D01*
X97069057Y-116400500D01*
X97221784Y-116359577D01*
X97358716Y-116280520D01*
X97358721Y-116280514D01*
X97364443Y-116276125D01*
X97429612Y-116250930D01*
X97439931Y-116250500D01*
X100210069Y-116250500D01*
X100277108Y-116270185D01*
X100285557Y-116276125D01*
X100291281Y-116280517D01*
X100291284Y-116280520D01*
X100291287Y-116280521D01*
X100291290Y-116280524D01*
X100385181Y-116334731D01*
X100428216Y-116359577D01*
X100580943Y-116400500D01*
X100580945Y-116400500D01*
X100739055Y-116400500D01*
X100739057Y-116400500D01*
X100891784Y-116359577D01*
X101028716Y-116280520D01*
X101140520Y-116168716D01*
X101219577Y-116031784D01*
X101260500Y-115879057D01*
X101260500Y-115720943D01*
X101219577Y-115568216D01*
X101174131Y-115489500D01*
X101140524Y-115431290D01*
X101140518Y-115431282D01*
X101028717Y-115319481D01*
X101028709Y-115319475D01*
X100891790Y-115240426D01*
X100891786Y-115240424D01*
X100891784Y-115240423D01*
X100739057Y-115199500D01*
X100580943Y-115199500D01*
X100475720Y-115227694D01*
X100405870Y-115226031D01*
X100348008Y-115186868D01*
X100320504Y-115122639D01*
X100323851Y-115075831D01*
X100360500Y-114939057D01*
X100360500Y-114780943D01*
X100319577Y-114628216D01*
X100298543Y-114591783D01*
X100240524Y-114491290D01*
X100240518Y-114491282D01*
X100128717Y-114379481D01*
X100128709Y-114379475D01*
X99991790Y-114300426D01*
X99991786Y-114300424D01*
X99991784Y-114300423D01*
X99839057Y-114259500D01*
X99680943Y-114259500D01*
X99528216Y-114300423D01*
X99528209Y-114300426D01*
X99391290Y-114379475D01*
X99385557Y-114383875D01*
X99320388Y-114409070D01*
X99310069Y-114409500D01*
X97209931Y-114409500D01*
X97142892Y-114389815D01*
X97134443Y-114383875D01*
X97128709Y-114379475D01*
X96991790Y-114300426D01*
X96991786Y-114300424D01*
X96991784Y-114300423D01*
X96839057Y-114259500D01*
X96680943Y-114259500D01*
X96528216Y-114300423D01*
X96528209Y-114300426D01*
X96391290Y-114379475D01*
X96391282Y-114379481D01*
X96279481Y-114491282D01*
X96279475Y-114491290D01*
X96200426Y-114628209D01*
X96200423Y-114628216D01*
X96159500Y-114780943D01*
X70025500Y-114780943D01*
X70025500Y-112505513D01*
X74399500Y-112505513D01*
X74399500Y-112694486D01*
X74429059Y-112881118D01*
X74487454Y-113060836D01*
X74542822Y-113169500D01*
X74573240Y-113229199D01*
X74684310Y-113382073D01*
X74817927Y-113515690D01*
X74970801Y-113626760D01*
X75050347Y-113667290D01*
X75139163Y-113712545D01*
X75139165Y-113712545D01*
X75139168Y-113712547D01*
X75235497Y-113743846D01*
X75318881Y-113770940D01*
X75505514Y-113800500D01*
X75505519Y-113800500D01*
X77494486Y-113800500D01*
X77681118Y-113770940D01*
X77860832Y-113712547D01*
X78029199Y-113626760D01*
X78147315Y-113540943D01*
X101879500Y-113540943D01*
X101879500Y-113699057D01*
X101905037Y-113794360D01*
X101920423Y-113851783D01*
X101920426Y-113851790D01*
X101999475Y-113988709D01*
X101999479Y-113988714D01*
X101999480Y-113988716D01*
X102111284Y-114100520D01*
X102111286Y-114100521D01*
X102111290Y-114100524D01*
X102248209Y-114179573D01*
X102248216Y-114179577D01*
X102400943Y-114220500D01*
X102400945Y-114220500D01*
X102559055Y-114220500D01*
X102559057Y-114220500D01*
X102711784Y-114179577D01*
X102848716Y-114100520D01*
X102848721Y-114100514D01*
X102854443Y-114096125D01*
X102875765Y-114087881D01*
X102894996Y-114075523D01*
X102915272Y-114072607D01*
X102919612Y-114070930D01*
X102929931Y-114070500D01*
X103044288Y-114070500D01*
X103111327Y-114090185D01*
X103157082Y-114142989D01*
X103167026Y-114212147D01*
X103164063Y-114226593D01*
X103149500Y-114280943D01*
X103149500Y-114439056D01*
X103190423Y-114591783D01*
X103190426Y-114591790D01*
X103269475Y-114728709D01*
X103269479Y-114728714D01*
X103269480Y-114728716D01*
X103381284Y-114840520D01*
X103381286Y-114840521D01*
X103381290Y-114840524D01*
X103483441Y-114899500D01*
X103518216Y-114919577D01*
X103670943Y-114960500D01*
X103670945Y-114960500D01*
X103678099Y-114961442D01*
X103741996Y-114989707D01*
X103749597Y-114996700D01*
X105983386Y-117230489D01*
X106086113Y-117289799D01*
X106110321Y-117296284D01*
X106110324Y-117296286D01*
X106110325Y-117296286D01*
X106126052Y-117300500D01*
X106200691Y-117320500D01*
X111010069Y-117320500D01*
X111077108Y-117340185D01*
X111085557Y-117346125D01*
X111091281Y-117350517D01*
X111091284Y-117350520D01*
X111091287Y-117350521D01*
X111091290Y-117350524D01*
X111228209Y-117429573D01*
X111228216Y-117429577D01*
X111380943Y-117470500D01*
X111380945Y-117470500D01*
X111539055Y-117470500D01*
X111539057Y-117470500D01*
X111691784Y-117429577D01*
X111828716Y-117350520D01*
X111940520Y-117238716D01*
X112019577Y-117101784D01*
X112060500Y-116949057D01*
X112060500Y-116790943D01*
X112019577Y-116638216D01*
X111983944Y-116576498D01*
X111982513Y-116570597D01*
X111978539Y-116566011D01*
X111974374Y-116537048D01*
X111967473Y-116508599D01*
X111969458Y-116502861D01*
X111968595Y-116496853D01*
X111980752Y-116470231D01*
X111990326Y-116442572D01*
X111995098Y-116438819D01*
X111997620Y-116433297D01*
X112022242Y-116417473D01*
X112045248Y-116399382D01*
X112052597Y-116397965D01*
X112056398Y-116395523D01*
X112091333Y-116390500D01*
X112160069Y-116390500D01*
X112227108Y-116410185D01*
X112235557Y-116416125D01*
X112241281Y-116420517D01*
X112241284Y-116420520D01*
X112241287Y-116420521D01*
X112241290Y-116420524D01*
X112373498Y-116496853D01*
X112378216Y-116499577D01*
X112530943Y-116540500D01*
X112530945Y-116540500D01*
X112689055Y-116540500D01*
X112689057Y-116540500D01*
X112841784Y-116499577D01*
X112978716Y-116420520D01*
X113090520Y-116308716D01*
X113169577Y-116171784D01*
X113210500Y-116019057D01*
X113210500Y-115860943D01*
X113169577Y-115708216D01*
X113169573Y-115708209D01*
X113090524Y-115571290D01*
X113090518Y-115571282D01*
X112978717Y-115459481D01*
X112978709Y-115459475D01*
X112841790Y-115380426D01*
X112841786Y-115380424D01*
X112841784Y-115380423D01*
X112689057Y-115339500D01*
X112530943Y-115339500D01*
X112378216Y-115380423D01*
X112378209Y-115380426D01*
X112241290Y-115459475D01*
X112235557Y-115463875D01*
X112170388Y-115489070D01*
X112160069Y-115489500D01*
X106827865Y-115489500D01*
X106760826Y-115469815D01*
X106740184Y-115453181D01*
X105646600Y-114359597D01*
X105638254Y-114344711D01*
X105626809Y-114333769D01*
X105618709Y-114309854D01*
X105613737Y-114300985D01*
X105610400Y-114287147D01*
X105610400Y-114280943D01*
X105595439Y-114225109D01*
X105595068Y-114223569D01*
X105596704Y-114190176D01*
X105597500Y-114156743D01*
X105598407Y-114155401D01*
X105598487Y-114153784D01*
X105617925Y-114126565D01*
X105636663Y-114098881D01*
X105638151Y-114098243D01*
X105639093Y-114096925D01*
X105670170Y-114084532D01*
X105700892Y-114071377D01*
X105703560Y-114071218D01*
X105703994Y-114071045D01*
X105704574Y-114071157D01*
X105715612Y-114070500D01*
X110530069Y-114070500D01*
X110597108Y-114090185D01*
X110605557Y-114096125D01*
X110611281Y-114100517D01*
X110611284Y-114100520D01*
X110611287Y-114100521D01*
X110611290Y-114100524D01*
X110748209Y-114179573D01*
X110748216Y-114179577D01*
X110900943Y-114220500D01*
X110900945Y-114220500D01*
X111059055Y-114220500D01*
X111059057Y-114220500D01*
X111211784Y-114179577D01*
X111348716Y-114100520D01*
X111348721Y-114100514D01*
X111354443Y-114096125D01*
X111419612Y-114070930D01*
X111429931Y-114070500D01*
X117670691Y-114070500D01*
X117910703Y-114070500D01*
X117972702Y-114087113D01*
X118069484Y-114142989D01*
X118098216Y-114159577D01*
X118250943Y-114200500D01*
X118250945Y-114200500D01*
X118409055Y-114200500D01*
X118409057Y-114200500D01*
X118561784Y-114159577D01*
X118698716Y-114080520D01*
X118698721Y-114080514D01*
X118704443Y-114076125D01*
X118769612Y-114050930D01*
X118779931Y-114050500D01*
X124980069Y-114050500D01*
X125047108Y-114070185D01*
X125055557Y-114076125D01*
X125061281Y-114080517D01*
X125061284Y-114080520D01*
X125061287Y-114080521D01*
X125061290Y-114080524D01*
X125169484Y-114142989D01*
X125198216Y-114159577D01*
X125350943Y-114200500D01*
X125350945Y-114200500D01*
X125509055Y-114200500D01*
X125509057Y-114200500D01*
X125661784Y-114159577D01*
X125798716Y-114080520D01*
X125910520Y-113968716D01*
X125989577Y-113831784D01*
X126030500Y-113679057D01*
X126030500Y-113520943D01*
X125989577Y-113368216D01*
X125980848Y-113353096D01*
X125910524Y-113231290D01*
X125910518Y-113231282D01*
X125798717Y-113119481D01*
X125798709Y-113119475D01*
X125661790Y-113040426D01*
X125661786Y-113040424D01*
X125661784Y-113040423D01*
X125509057Y-112999500D01*
X125350943Y-112999500D01*
X125198216Y-113040423D01*
X125198209Y-113040426D01*
X125061290Y-113119475D01*
X125055557Y-113123875D01*
X124990388Y-113149070D01*
X124980069Y-113149500D01*
X118779931Y-113149500D01*
X118712892Y-113129815D01*
X118704443Y-113123875D01*
X118698709Y-113119475D01*
X118561790Y-113040426D01*
X118561786Y-113040424D01*
X118561784Y-113040423D01*
X118409057Y-112999500D01*
X118250943Y-112999500D01*
X118098216Y-113040423D01*
X118098209Y-113040426D01*
X117961290Y-113119475D01*
X117961282Y-113119481D01*
X117947583Y-113133181D01*
X117886260Y-113166666D01*
X117859902Y-113169500D01*
X111429931Y-113169500D01*
X111362892Y-113149815D01*
X111354443Y-113143875D01*
X111348709Y-113139475D01*
X111211790Y-113060426D01*
X111211786Y-113060424D01*
X111211784Y-113060423D01*
X111059057Y-113019500D01*
X110900943Y-113019500D01*
X110748216Y-113060423D01*
X110748209Y-113060426D01*
X110611290Y-113139475D01*
X110605557Y-113143875D01*
X110540388Y-113169070D01*
X110530069Y-113169500D01*
X102929931Y-113169500D01*
X102862892Y-113149815D01*
X102854443Y-113143875D01*
X102848709Y-113139475D01*
X102711790Y-113060426D01*
X102711786Y-113060424D01*
X102711784Y-113060423D01*
X102559057Y-113019500D01*
X102400943Y-113019500D01*
X102248216Y-113060423D01*
X102248209Y-113060426D01*
X102111290Y-113139475D01*
X102111282Y-113139481D01*
X101999481Y-113251282D01*
X101999475Y-113251290D01*
X101920426Y-113388209D01*
X101920423Y-113388216D01*
X101879500Y-113540943D01*
X78147315Y-113540943D01*
X78182073Y-113515690D01*
X78315690Y-113382073D01*
X78426760Y-113229199D01*
X78512547Y-113060832D01*
X78570940Y-112881118D01*
X78600500Y-112694486D01*
X78600500Y-112505513D01*
X78570940Y-112318881D01*
X78512545Y-112139163D01*
X78426759Y-111970800D01*
X78423924Y-111966898D01*
X78315690Y-111817927D01*
X78182073Y-111684310D01*
X78029199Y-111573240D01*
X77977820Y-111547061D01*
X77860836Y-111487454D01*
X77681118Y-111429059D01*
X77494486Y-111399500D01*
X77494481Y-111399500D01*
X75505519Y-111399500D01*
X75505514Y-111399500D01*
X75318881Y-111429059D01*
X75139163Y-111487454D01*
X74970800Y-111573240D01*
X74911347Y-111616436D01*
X74817927Y-111684310D01*
X74817925Y-111684312D01*
X74817924Y-111684312D01*
X74684312Y-111817924D01*
X74684312Y-111817925D01*
X74684310Y-111817927D01*
X74640347Y-111878436D01*
X74573240Y-111970800D01*
X74487454Y-112139163D01*
X74429059Y-112318881D01*
X74399500Y-112505513D01*
X70025500Y-112505513D01*
X70025500Y-109005513D01*
X74399500Y-109005513D01*
X74399500Y-109194486D01*
X74429059Y-109381118D01*
X74487454Y-109560836D01*
X74518024Y-109620832D01*
X74573240Y-109729199D01*
X74684310Y-109882073D01*
X74817927Y-110015690D01*
X74970801Y-110126760D01*
X75050347Y-110167290D01*
X75139163Y-110212545D01*
X75139165Y-110212545D01*
X75139168Y-110212547D01*
X75235497Y-110243846D01*
X75318881Y-110270940D01*
X75505514Y-110300500D01*
X75505519Y-110300500D01*
X77494486Y-110300500D01*
X77681118Y-110270940D01*
X77860832Y-110212547D01*
X78029199Y-110126760D01*
X78182073Y-110015690D01*
X78315690Y-109882073D01*
X78426760Y-109729199D01*
X78512547Y-109560832D01*
X78570940Y-109381118D01*
X78580672Y-109319672D01*
X78600500Y-109194486D01*
X78600500Y-109005513D01*
X78570940Y-108818881D01*
X78512545Y-108639163D01*
X78426759Y-108470800D01*
X78315690Y-108317927D01*
X78182073Y-108184310D01*
X78029199Y-108073240D01*
X77860836Y-107987454D01*
X77681118Y-107929059D01*
X77494486Y-107899500D01*
X77494481Y-107899500D01*
X75505519Y-107899500D01*
X75505514Y-107899500D01*
X75318881Y-107929059D01*
X75139163Y-107987454D01*
X74970800Y-108073240D01*
X74888218Y-108133240D01*
X74817927Y-108184310D01*
X74817925Y-108184312D01*
X74817924Y-108184312D01*
X74684312Y-108317924D01*
X74684312Y-108317925D01*
X74684310Y-108317927D01*
X74640719Y-108377924D01*
X74573240Y-108470800D01*
X74487454Y-108639163D01*
X74429059Y-108818881D01*
X74399500Y-109005513D01*
X70025500Y-109005513D01*
X70025500Y-105505513D01*
X74399500Y-105505513D01*
X74399500Y-105694486D01*
X74429059Y-105881118D01*
X74487454Y-106060836D01*
X74518024Y-106120832D01*
X74573240Y-106229199D01*
X74684310Y-106382073D01*
X74817927Y-106515690D01*
X74970801Y-106626760D01*
X75050347Y-106667290D01*
X75139163Y-106712545D01*
X75139165Y-106712545D01*
X75139168Y-106712547D01*
X75235497Y-106743846D01*
X75318881Y-106770940D01*
X75505514Y-106800500D01*
X75505519Y-106800500D01*
X77494486Y-106800500D01*
X77681118Y-106770940D01*
X77860832Y-106712547D01*
X78029199Y-106626760D01*
X78182073Y-106515690D01*
X78315690Y-106382073D01*
X78426760Y-106229199D01*
X78512547Y-106060832D01*
X78570940Y-105881118D01*
X78600500Y-105694486D01*
X78600500Y-105505513D01*
X78570940Y-105318881D01*
X78532041Y-105199163D01*
X78512547Y-105139168D01*
X78512545Y-105139165D01*
X78512545Y-105139163D01*
X78426759Y-104970800D01*
X78397262Y-104930201D01*
X78315690Y-104817927D01*
X78182073Y-104684310D01*
X78029199Y-104573240D01*
X77860836Y-104487454D01*
X77681118Y-104429059D01*
X77494486Y-104399500D01*
X77494481Y-104399500D01*
X75505519Y-104399500D01*
X75505514Y-104399500D01*
X75318881Y-104429059D01*
X75139163Y-104487454D01*
X74970800Y-104573240D01*
X74888218Y-104633240D01*
X74817927Y-104684310D01*
X74817925Y-104684312D01*
X74817924Y-104684312D01*
X74684312Y-104817924D01*
X74684312Y-104817925D01*
X74684310Y-104817927D01*
X74640719Y-104877924D01*
X74573240Y-104970800D01*
X74487454Y-105139163D01*
X74429059Y-105318881D01*
X74399500Y-105505513D01*
X70025500Y-105505513D01*
X70025500Y-102005513D01*
X74399500Y-102005513D01*
X74399500Y-102194486D01*
X74429059Y-102381118D01*
X74487454Y-102560836D01*
X74518024Y-102620832D01*
X74573240Y-102729199D01*
X74684310Y-102882073D01*
X74817927Y-103015690D01*
X74970801Y-103126760D01*
X75050347Y-103167290D01*
X75139163Y-103212545D01*
X75139165Y-103212545D01*
X75139168Y-103212547D01*
X75218449Y-103238307D01*
X75318881Y-103270940D01*
X75505514Y-103300500D01*
X75505519Y-103300500D01*
X77494486Y-103300500D01*
X77681118Y-103270940D01*
X77706404Y-103262724D01*
X77860832Y-103212547D01*
X78029199Y-103126760D01*
X78182073Y-103015690D01*
X78315690Y-102882073D01*
X78426760Y-102729199D01*
X78512547Y-102560832D01*
X78570940Y-102381118D01*
X78600500Y-102194486D01*
X78600500Y-102005513D01*
X78570940Y-101818881D01*
X78512545Y-101639163D01*
X78426759Y-101470800D01*
X78315690Y-101317927D01*
X78182073Y-101184310D01*
X78029199Y-101073240D01*
X77860836Y-100987454D01*
X77681118Y-100929059D01*
X77494486Y-100899500D01*
X77494481Y-100899500D01*
X75505519Y-100899500D01*
X75505514Y-100899500D01*
X75318881Y-100929059D01*
X75139163Y-100987454D01*
X74970800Y-101073240D01*
X74888218Y-101133240D01*
X74817927Y-101184310D01*
X74817925Y-101184312D01*
X74817924Y-101184312D01*
X74684312Y-101317924D01*
X74684312Y-101317925D01*
X74684310Y-101317927D01*
X74640719Y-101377924D01*
X74573240Y-101470800D01*
X74487454Y-101639163D01*
X74429059Y-101818881D01*
X74399500Y-102005513D01*
X70025500Y-102005513D01*
X70025500Y-97906898D01*
X74399500Y-97906898D01*
X74399500Y-99293102D01*
X74405126Y-99339954D01*
X74410122Y-99381561D01*
X74465639Y-99522343D01*
X74557077Y-99642922D01*
X74677656Y-99734360D01*
X74677657Y-99734360D01*
X74677658Y-99734361D01*
X74818436Y-99789877D01*
X74906898Y-99800500D01*
X74906903Y-99800500D01*
X78093097Y-99800500D01*
X78093102Y-99800500D01*
X78181564Y-99789877D01*
X78322342Y-99734361D01*
X78442922Y-99642922D01*
X78534361Y-99522342D01*
X78589877Y-99381564D01*
X78600500Y-99293102D01*
X78600500Y-97906898D01*
X78589877Y-97818436D01*
X78534361Y-97677658D01*
X78534360Y-97677657D01*
X78534360Y-97677656D01*
X78442922Y-97557077D01*
X78322343Y-97465639D01*
X78181561Y-97410122D01*
X78135926Y-97404642D01*
X78093102Y-97399500D01*
X74906898Y-97399500D01*
X74867853Y-97404188D01*
X74818438Y-97410122D01*
X74677656Y-97465639D01*
X74557077Y-97557077D01*
X74465639Y-97677656D01*
X74410122Y-97818438D01*
X74404188Y-97867853D01*
X74399500Y-97906898D01*
X70025500Y-97906898D01*
X70025500Y-95722945D01*
X70045185Y-95655906D01*
X70097989Y-95610151D01*
X70148803Y-95598948D01*
X78766633Y-95550951D01*
X78833779Y-95570262D01*
G37*
%TD.AperFunction*%
%TD*%
M02*
