%TF.GenerationSoftware,KiCad,Pcbnew,9.0.3*%
%TF.CreationDate,2025-12-31T10:25:08+01:00*%
%TF.ProjectId,REG1-App-OneWire,52454731-2d41-4707-902d-4f6e65576972,V01.10*%
%TF.SameCoordinates,Original*%
%TF.FileFunction,Legend,Bot*%
%TF.FilePolarity,Positive*%
%FSLAX46Y46*%
G04 Gerber Fmt 4.6, Leading zero omitted, Abs format (unit mm)*
G04 Created by KiCad (PCBNEW 9.0.3) date 2025-12-31 10:25:08*
%MOMM*%
%LPD*%
G01*
G04 APERTURE LIST*
%ADD10C,0.150000*%
%ADD11C,0.160000*%
%ADD12C,0.120000*%
G04 APERTURE END LIST*
D10*
X109954819Y-95901541D02*
X109954819Y-96520588D01*
X109954819Y-96520588D02*
X110335771Y-96187255D01*
X110335771Y-96187255D02*
X110335771Y-96330112D01*
X110335771Y-96330112D02*
X110383390Y-96425350D01*
X110383390Y-96425350D02*
X110431009Y-96472969D01*
X110431009Y-96472969D02*
X110526247Y-96520588D01*
X110526247Y-96520588D02*
X110764342Y-96520588D01*
X110764342Y-96520588D02*
X110859580Y-96472969D01*
X110859580Y-96472969D02*
X110907200Y-96425350D01*
X110907200Y-96425350D02*
X110954819Y-96330112D01*
X110954819Y-96330112D02*
X110954819Y-96044398D01*
X110954819Y-96044398D02*
X110907200Y-95949160D01*
X110907200Y-95949160D02*
X110859580Y-95901541D01*
X110859580Y-96949160D02*
X110907200Y-96996779D01*
X110907200Y-96996779D02*
X110954819Y-96949160D01*
X110954819Y-96949160D02*
X110907200Y-96901541D01*
X110907200Y-96901541D02*
X110859580Y-96949160D01*
X110859580Y-96949160D02*
X110954819Y-96949160D01*
X109954819Y-97330112D02*
X109954819Y-97949159D01*
X109954819Y-97949159D02*
X110335771Y-97615826D01*
X110335771Y-97615826D02*
X110335771Y-97758683D01*
X110335771Y-97758683D02*
X110383390Y-97853921D01*
X110383390Y-97853921D02*
X110431009Y-97901540D01*
X110431009Y-97901540D02*
X110526247Y-97949159D01*
X110526247Y-97949159D02*
X110764342Y-97949159D01*
X110764342Y-97949159D02*
X110859580Y-97901540D01*
X110859580Y-97901540D02*
X110907200Y-97853921D01*
X110907200Y-97853921D02*
X110954819Y-97758683D01*
X110954819Y-97758683D02*
X110954819Y-97472969D01*
X110954819Y-97472969D02*
X110907200Y-97377731D01*
X110907200Y-97377731D02*
X110859580Y-97330112D01*
X109954819Y-98234874D02*
X110954819Y-98568207D01*
X110954819Y-98568207D02*
X109954819Y-98901540D01*
X118269104Y-95949160D02*
X118269104Y-96425350D01*
X118554819Y-95853922D02*
X117554819Y-96187255D01*
X117554819Y-96187255D02*
X118554819Y-96520588D01*
X117888152Y-96853922D02*
X118888152Y-96853922D01*
X117935771Y-96853922D02*
X117888152Y-96949160D01*
X117888152Y-96949160D02*
X117888152Y-97139636D01*
X117888152Y-97139636D02*
X117935771Y-97234874D01*
X117935771Y-97234874D02*
X117983390Y-97282493D01*
X117983390Y-97282493D02*
X118078628Y-97330112D01*
X118078628Y-97330112D02*
X118364342Y-97330112D01*
X118364342Y-97330112D02*
X118459580Y-97282493D01*
X118459580Y-97282493D02*
X118507200Y-97234874D01*
X118507200Y-97234874D02*
X118554819Y-97139636D01*
X118554819Y-97139636D02*
X118554819Y-96949160D01*
X118554819Y-96949160D02*
X118507200Y-96853922D01*
X117888152Y-97758684D02*
X118888152Y-97758684D01*
X117935771Y-97758684D02*
X117888152Y-97853922D01*
X117888152Y-97853922D02*
X117888152Y-98044398D01*
X117888152Y-98044398D02*
X117935771Y-98139636D01*
X117935771Y-98139636D02*
X117983390Y-98187255D01*
X117983390Y-98187255D02*
X118078628Y-98234874D01*
X118078628Y-98234874D02*
X118364342Y-98234874D01*
X118364342Y-98234874D02*
X118459580Y-98187255D01*
X118459580Y-98187255D02*
X118507200Y-98139636D01*
X118507200Y-98139636D02*
X118554819Y-98044398D01*
X118554819Y-98044398D02*
X118554819Y-97853922D01*
X118554819Y-97853922D02*
X118507200Y-97758684D01*
X117650057Y-98615827D02*
X117602438Y-98663446D01*
X117602438Y-98663446D02*
X117554819Y-98758684D01*
X117554819Y-98758684D02*
X117554819Y-98996779D01*
X117554819Y-98996779D02*
X117602438Y-99092017D01*
X117602438Y-99092017D02*
X117650057Y-99139636D01*
X117650057Y-99139636D02*
X117745295Y-99187255D01*
X117745295Y-99187255D02*
X117840533Y-99187255D01*
X117840533Y-99187255D02*
X117983390Y-99139636D01*
X117983390Y-99139636D02*
X118554819Y-98568208D01*
X118554819Y-98568208D02*
X118554819Y-99187255D01*
X118459580Y-99615827D02*
X118507200Y-99663446D01*
X118507200Y-99663446D02*
X118554819Y-99615827D01*
X118554819Y-99615827D02*
X118507200Y-99568208D01*
X118507200Y-99568208D02*
X118459580Y-99615827D01*
X118459580Y-99615827D02*
X118554819Y-99615827D01*
X117935771Y-99615827D02*
X117983390Y-99663446D01*
X117983390Y-99663446D02*
X118031009Y-99615827D01*
X118031009Y-99615827D02*
X117983390Y-99568208D01*
X117983390Y-99568208D02*
X117935771Y-99615827D01*
X117935771Y-99615827D02*
X118031009Y-99615827D01*
X118554819Y-100853922D02*
X117554819Y-100853922D01*
X117554819Y-100853922D02*
X117554819Y-101092017D01*
X117554819Y-101092017D02*
X117602438Y-101234874D01*
X117602438Y-101234874D02*
X117697676Y-101330112D01*
X117697676Y-101330112D02*
X117792914Y-101377731D01*
X117792914Y-101377731D02*
X117983390Y-101425350D01*
X117983390Y-101425350D02*
X118126247Y-101425350D01*
X118126247Y-101425350D02*
X118316723Y-101377731D01*
X118316723Y-101377731D02*
X118411961Y-101330112D01*
X118411961Y-101330112D02*
X118507200Y-101234874D01*
X118507200Y-101234874D02*
X118554819Y-101092017D01*
X118554819Y-101092017D02*
X118554819Y-100853922D01*
X118507200Y-101806303D02*
X118554819Y-101949160D01*
X118554819Y-101949160D02*
X118554819Y-102187255D01*
X118554819Y-102187255D02*
X118507200Y-102282493D01*
X118507200Y-102282493D02*
X118459580Y-102330112D01*
X118459580Y-102330112D02*
X118364342Y-102377731D01*
X118364342Y-102377731D02*
X118269104Y-102377731D01*
X118269104Y-102377731D02*
X118173866Y-102330112D01*
X118173866Y-102330112D02*
X118126247Y-102282493D01*
X118126247Y-102282493D02*
X118078628Y-102187255D01*
X118078628Y-102187255D02*
X118031009Y-101996779D01*
X118031009Y-101996779D02*
X117983390Y-101901541D01*
X117983390Y-101901541D02*
X117935771Y-101853922D01*
X117935771Y-101853922D02*
X117840533Y-101806303D01*
X117840533Y-101806303D02*
X117745295Y-101806303D01*
X117745295Y-101806303D02*
X117650057Y-101853922D01*
X117650057Y-101853922D02*
X117602438Y-101901541D01*
X117602438Y-101901541D02*
X117554819Y-101996779D01*
X117554819Y-101996779D02*
X117554819Y-102234874D01*
X117554819Y-102234874D02*
X117602438Y-102377731D01*
X117650057Y-102758684D02*
X117602438Y-102806303D01*
X117602438Y-102806303D02*
X117554819Y-102901541D01*
X117554819Y-102901541D02*
X117554819Y-103139636D01*
X117554819Y-103139636D02*
X117602438Y-103234874D01*
X117602438Y-103234874D02*
X117650057Y-103282493D01*
X117650057Y-103282493D02*
X117745295Y-103330112D01*
X117745295Y-103330112D02*
X117840533Y-103330112D01*
X117840533Y-103330112D02*
X117983390Y-103282493D01*
X117983390Y-103282493D02*
X118554819Y-102711065D01*
X118554819Y-102711065D02*
X118554819Y-103330112D01*
X117888152Y-104187255D02*
X118554819Y-104187255D01*
X117507200Y-103949160D02*
X118221485Y-103711065D01*
X118221485Y-103711065D02*
X118221485Y-104330112D01*
X117983390Y-104853922D02*
X117935771Y-104758684D01*
X117935771Y-104758684D02*
X117888152Y-104711065D01*
X117888152Y-104711065D02*
X117792914Y-104663446D01*
X117792914Y-104663446D02*
X117745295Y-104663446D01*
X117745295Y-104663446D02*
X117650057Y-104711065D01*
X117650057Y-104711065D02*
X117602438Y-104758684D01*
X117602438Y-104758684D02*
X117554819Y-104853922D01*
X117554819Y-104853922D02*
X117554819Y-105044398D01*
X117554819Y-105044398D02*
X117602438Y-105139636D01*
X117602438Y-105139636D02*
X117650057Y-105187255D01*
X117650057Y-105187255D02*
X117745295Y-105234874D01*
X117745295Y-105234874D02*
X117792914Y-105234874D01*
X117792914Y-105234874D02*
X117888152Y-105187255D01*
X117888152Y-105187255D02*
X117935771Y-105139636D01*
X117935771Y-105139636D02*
X117983390Y-105044398D01*
X117983390Y-105044398D02*
X117983390Y-104853922D01*
X117983390Y-104853922D02*
X118031009Y-104758684D01*
X118031009Y-104758684D02*
X118078628Y-104711065D01*
X118078628Y-104711065D02*
X118173866Y-104663446D01*
X118173866Y-104663446D02*
X118364342Y-104663446D01*
X118364342Y-104663446D02*
X118459580Y-104711065D01*
X118459580Y-104711065D02*
X118507200Y-104758684D01*
X118507200Y-104758684D02*
X118554819Y-104853922D01*
X118554819Y-104853922D02*
X118554819Y-105044398D01*
X118554819Y-105044398D02*
X118507200Y-105139636D01*
X118507200Y-105139636D02*
X118459580Y-105187255D01*
X118459580Y-105187255D02*
X118364342Y-105234874D01*
X118364342Y-105234874D02*
X118173866Y-105234874D01*
X118173866Y-105234874D02*
X118078628Y-105187255D01*
X118078628Y-105187255D02*
X118031009Y-105139636D01*
X118031009Y-105139636D02*
X117983390Y-105044398D01*
X117888152Y-106092017D02*
X118554819Y-106092017D01*
X117507200Y-105853922D02*
X118221485Y-105615827D01*
X118221485Y-105615827D02*
X118221485Y-106234874D01*
X118507200Y-107330113D02*
X118554819Y-107472970D01*
X118554819Y-107472970D02*
X118554819Y-107711065D01*
X118554819Y-107711065D02*
X118507200Y-107806303D01*
X118507200Y-107806303D02*
X118459580Y-107853922D01*
X118459580Y-107853922D02*
X118364342Y-107901541D01*
X118364342Y-107901541D02*
X118269104Y-107901541D01*
X118269104Y-107901541D02*
X118173866Y-107853922D01*
X118173866Y-107853922D02*
X118126247Y-107806303D01*
X118126247Y-107806303D02*
X118078628Y-107711065D01*
X118078628Y-107711065D02*
X118031009Y-107520589D01*
X118031009Y-107520589D02*
X117983390Y-107425351D01*
X117983390Y-107425351D02*
X117935771Y-107377732D01*
X117935771Y-107377732D02*
X117840533Y-107330113D01*
X117840533Y-107330113D02*
X117745295Y-107330113D01*
X117745295Y-107330113D02*
X117650057Y-107377732D01*
X117650057Y-107377732D02*
X117602438Y-107425351D01*
X117602438Y-107425351D02*
X117554819Y-107520589D01*
X117554819Y-107520589D02*
X117554819Y-107758684D01*
X117554819Y-107758684D02*
X117602438Y-107901541D01*
X118554819Y-108330113D02*
X117554819Y-108330113D01*
X117554819Y-108330113D02*
X117554819Y-108568208D01*
X117554819Y-108568208D02*
X117602438Y-108711065D01*
X117602438Y-108711065D02*
X117697676Y-108806303D01*
X117697676Y-108806303D02*
X117792914Y-108853922D01*
X117792914Y-108853922D02*
X117983390Y-108901541D01*
X117983390Y-108901541D02*
X118126247Y-108901541D01*
X118126247Y-108901541D02*
X118316723Y-108853922D01*
X118316723Y-108853922D02*
X118411961Y-108806303D01*
X118411961Y-108806303D02*
X118507200Y-108711065D01*
X118507200Y-108711065D02*
X118554819Y-108568208D01*
X118554819Y-108568208D02*
X118554819Y-108330113D01*
X118269104Y-109282494D02*
X118269104Y-109758684D01*
X118554819Y-109187256D02*
X117554819Y-109520589D01*
X117554819Y-109520589D02*
X118554819Y-109853922D01*
X117507200Y-110901541D02*
X118792914Y-110044399D01*
X117554819Y-111092018D02*
X117554819Y-111663446D01*
X118554819Y-111377732D02*
X117554819Y-111377732D01*
X117554819Y-111901542D02*
X118554819Y-112568208D01*
X117554819Y-112568208D02*
X118554819Y-111901542D01*
X125869104Y-95949160D02*
X125869104Y-96425350D01*
X126154819Y-95853922D02*
X125154819Y-96187255D01*
X125154819Y-96187255D02*
X126154819Y-96520588D01*
X125488152Y-96853922D02*
X126488152Y-96853922D01*
X125535771Y-96853922D02*
X125488152Y-96949160D01*
X125488152Y-96949160D02*
X125488152Y-97139636D01*
X125488152Y-97139636D02*
X125535771Y-97234874D01*
X125535771Y-97234874D02*
X125583390Y-97282493D01*
X125583390Y-97282493D02*
X125678628Y-97330112D01*
X125678628Y-97330112D02*
X125964342Y-97330112D01*
X125964342Y-97330112D02*
X126059580Y-97282493D01*
X126059580Y-97282493D02*
X126107200Y-97234874D01*
X126107200Y-97234874D02*
X126154819Y-97139636D01*
X126154819Y-97139636D02*
X126154819Y-96949160D01*
X126154819Y-96949160D02*
X126107200Y-96853922D01*
X125488152Y-97758684D02*
X126488152Y-97758684D01*
X125535771Y-97758684D02*
X125488152Y-97853922D01*
X125488152Y-97853922D02*
X125488152Y-98044398D01*
X125488152Y-98044398D02*
X125535771Y-98139636D01*
X125535771Y-98139636D02*
X125583390Y-98187255D01*
X125583390Y-98187255D02*
X125678628Y-98234874D01*
X125678628Y-98234874D02*
X125964342Y-98234874D01*
X125964342Y-98234874D02*
X126059580Y-98187255D01*
X126059580Y-98187255D02*
X126107200Y-98139636D01*
X126107200Y-98139636D02*
X126154819Y-98044398D01*
X126154819Y-98044398D02*
X126154819Y-97853922D01*
X126154819Y-97853922D02*
X126107200Y-97758684D01*
X125154819Y-99139636D02*
X125154819Y-98663446D01*
X125154819Y-98663446D02*
X125631009Y-98615827D01*
X125631009Y-98615827D02*
X125583390Y-98663446D01*
X125583390Y-98663446D02*
X125535771Y-98758684D01*
X125535771Y-98758684D02*
X125535771Y-98996779D01*
X125535771Y-98996779D02*
X125583390Y-99092017D01*
X125583390Y-99092017D02*
X125631009Y-99139636D01*
X125631009Y-99139636D02*
X125726247Y-99187255D01*
X125726247Y-99187255D02*
X125964342Y-99187255D01*
X125964342Y-99187255D02*
X126059580Y-99139636D01*
X126059580Y-99139636D02*
X126107200Y-99092017D01*
X126107200Y-99092017D02*
X126154819Y-98996779D01*
X126154819Y-98996779D02*
X126154819Y-98758684D01*
X126154819Y-98758684D02*
X126107200Y-98663446D01*
X126107200Y-98663446D02*
X126059580Y-98615827D01*
X126059580Y-99615827D02*
X126107200Y-99663446D01*
X126107200Y-99663446D02*
X126154819Y-99615827D01*
X126154819Y-99615827D02*
X126107200Y-99568208D01*
X126107200Y-99568208D02*
X126059580Y-99615827D01*
X126059580Y-99615827D02*
X126154819Y-99615827D01*
X125535771Y-99615827D02*
X125583390Y-99663446D01*
X125583390Y-99663446D02*
X125631009Y-99615827D01*
X125631009Y-99615827D02*
X125583390Y-99568208D01*
X125583390Y-99568208D02*
X125535771Y-99615827D01*
X125535771Y-99615827D02*
X125631009Y-99615827D01*
X125631009Y-101187255D02*
X125678628Y-101330112D01*
X125678628Y-101330112D02*
X125726247Y-101377731D01*
X125726247Y-101377731D02*
X125821485Y-101425350D01*
X125821485Y-101425350D02*
X125964342Y-101425350D01*
X125964342Y-101425350D02*
X126059580Y-101377731D01*
X126059580Y-101377731D02*
X126107200Y-101330112D01*
X126107200Y-101330112D02*
X126154819Y-101234874D01*
X126154819Y-101234874D02*
X126154819Y-100853922D01*
X126154819Y-100853922D02*
X125154819Y-100853922D01*
X125154819Y-100853922D02*
X125154819Y-101187255D01*
X125154819Y-101187255D02*
X125202438Y-101282493D01*
X125202438Y-101282493D02*
X125250057Y-101330112D01*
X125250057Y-101330112D02*
X125345295Y-101377731D01*
X125345295Y-101377731D02*
X125440533Y-101377731D01*
X125440533Y-101377731D02*
X125535771Y-101330112D01*
X125535771Y-101330112D02*
X125583390Y-101282493D01*
X125583390Y-101282493D02*
X125631009Y-101187255D01*
X125631009Y-101187255D02*
X125631009Y-100853922D01*
X126154819Y-101853922D02*
X125488152Y-101853922D01*
X125154819Y-101853922D02*
X125202438Y-101806303D01*
X125202438Y-101806303D02*
X125250057Y-101853922D01*
X125250057Y-101853922D02*
X125202438Y-101901541D01*
X125202438Y-101901541D02*
X125154819Y-101853922D01*
X125154819Y-101853922D02*
X125250057Y-101853922D01*
X125488152Y-102330112D02*
X126154819Y-102330112D01*
X125583390Y-102330112D02*
X125535771Y-102377731D01*
X125535771Y-102377731D02*
X125488152Y-102472969D01*
X125488152Y-102472969D02*
X125488152Y-102615826D01*
X125488152Y-102615826D02*
X125535771Y-102711064D01*
X125535771Y-102711064D02*
X125631009Y-102758683D01*
X125631009Y-102758683D02*
X126154819Y-102758683D01*
X126154819Y-103663445D02*
X125631009Y-103663445D01*
X125631009Y-103663445D02*
X125535771Y-103615826D01*
X125535771Y-103615826D02*
X125488152Y-103520588D01*
X125488152Y-103520588D02*
X125488152Y-103330112D01*
X125488152Y-103330112D02*
X125535771Y-103234874D01*
X126107200Y-103663445D02*
X126154819Y-103568207D01*
X126154819Y-103568207D02*
X126154819Y-103330112D01*
X126154819Y-103330112D02*
X126107200Y-103234874D01*
X126107200Y-103234874D02*
X126011961Y-103187255D01*
X126011961Y-103187255D02*
X125916723Y-103187255D01*
X125916723Y-103187255D02*
X125821485Y-103234874D01*
X125821485Y-103234874D02*
X125773866Y-103330112D01*
X125773866Y-103330112D02*
X125773866Y-103568207D01*
X125773866Y-103568207D02*
X125726247Y-103663445D01*
X126154819Y-104139636D02*
X125488152Y-104139636D01*
X125678628Y-104139636D02*
X125583390Y-104187255D01*
X125583390Y-104187255D02*
X125535771Y-104234874D01*
X125535771Y-104234874D02*
X125488152Y-104330112D01*
X125488152Y-104330112D02*
X125488152Y-104425350D01*
X125488152Y-104663446D02*
X126154819Y-104901541D01*
X125488152Y-105139636D02*
X126154819Y-104901541D01*
X126154819Y-104901541D02*
X126392914Y-104806303D01*
X126392914Y-104806303D02*
X126440533Y-104758684D01*
X126440533Y-104758684D02*
X126488152Y-104663446D01*
X126154819Y-106282494D02*
X125154819Y-106282494D01*
X125488152Y-106758684D02*
X126154819Y-106758684D01*
X125583390Y-106758684D02*
X125535771Y-106806303D01*
X125535771Y-106806303D02*
X125488152Y-106901541D01*
X125488152Y-106901541D02*
X125488152Y-107044398D01*
X125488152Y-107044398D02*
X125535771Y-107139636D01*
X125535771Y-107139636D02*
X125631009Y-107187255D01*
X125631009Y-107187255D02*
X126154819Y-107187255D01*
X125488152Y-107663446D02*
X126488152Y-107663446D01*
X125535771Y-107663446D02*
X125488152Y-107758684D01*
X125488152Y-107758684D02*
X125488152Y-107949160D01*
X125488152Y-107949160D02*
X125535771Y-108044398D01*
X125535771Y-108044398D02*
X125583390Y-108092017D01*
X125583390Y-108092017D02*
X125678628Y-108139636D01*
X125678628Y-108139636D02*
X125964342Y-108139636D01*
X125964342Y-108139636D02*
X126059580Y-108092017D01*
X126059580Y-108092017D02*
X126107200Y-108044398D01*
X126107200Y-108044398D02*
X126154819Y-107949160D01*
X126154819Y-107949160D02*
X126154819Y-107758684D01*
X126154819Y-107758684D02*
X126107200Y-107663446D01*
X125488152Y-108996779D02*
X126154819Y-108996779D01*
X125488152Y-108568208D02*
X126011961Y-108568208D01*
X126011961Y-108568208D02*
X126107200Y-108615827D01*
X126107200Y-108615827D02*
X126154819Y-108711065D01*
X126154819Y-108711065D02*
X126154819Y-108853922D01*
X126154819Y-108853922D02*
X126107200Y-108949160D01*
X126107200Y-108949160D02*
X126059580Y-108996779D01*
X125488152Y-109330113D02*
X125488152Y-109711065D01*
X125154819Y-109472970D02*
X126011961Y-109472970D01*
X126011961Y-109472970D02*
X126107200Y-109520589D01*
X126107200Y-109520589D02*
X126154819Y-109615827D01*
X126154819Y-109615827D02*
X126154819Y-109711065D01*
X126154819Y-111330113D02*
X126154819Y-110758685D01*
X126154819Y-111044399D02*
X125154819Y-111044399D01*
X125154819Y-111044399D02*
X125297676Y-110949161D01*
X125297676Y-110949161D02*
X125392914Y-110853923D01*
X125392914Y-110853923D02*
X125440533Y-110758685D01*
X123369104Y-95949160D02*
X123369104Y-96425350D01*
X123654819Y-95853922D02*
X122654819Y-96187255D01*
X122654819Y-96187255D02*
X123654819Y-96520588D01*
X122988152Y-96853922D02*
X123988152Y-96853922D01*
X123035771Y-96853922D02*
X122988152Y-96949160D01*
X122988152Y-96949160D02*
X122988152Y-97139636D01*
X122988152Y-97139636D02*
X123035771Y-97234874D01*
X123035771Y-97234874D02*
X123083390Y-97282493D01*
X123083390Y-97282493D02*
X123178628Y-97330112D01*
X123178628Y-97330112D02*
X123464342Y-97330112D01*
X123464342Y-97330112D02*
X123559580Y-97282493D01*
X123559580Y-97282493D02*
X123607200Y-97234874D01*
X123607200Y-97234874D02*
X123654819Y-97139636D01*
X123654819Y-97139636D02*
X123654819Y-96949160D01*
X123654819Y-96949160D02*
X123607200Y-96853922D01*
X122988152Y-97758684D02*
X123988152Y-97758684D01*
X123035771Y-97758684D02*
X122988152Y-97853922D01*
X122988152Y-97853922D02*
X122988152Y-98044398D01*
X122988152Y-98044398D02*
X123035771Y-98139636D01*
X123035771Y-98139636D02*
X123083390Y-98187255D01*
X123083390Y-98187255D02*
X123178628Y-98234874D01*
X123178628Y-98234874D02*
X123464342Y-98234874D01*
X123464342Y-98234874D02*
X123559580Y-98187255D01*
X123559580Y-98187255D02*
X123607200Y-98139636D01*
X123607200Y-98139636D02*
X123654819Y-98044398D01*
X123654819Y-98044398D02*
X123654819Y-97853922D01*
X123654819Y-97853922D02*
X123607200Y-97758684D01*
X122988152Y-99092017D02*
X123654819Y-99092017D01*
X122607200Y-98853922D02*
X123321485Y-98615827D01*
X123321485Y-98615827D02*
X123321485Y-99234874D01*
X123559580Y-99615827D02*
X123607200Y-99663446D01*
X123607200Y-99663446D02*
X123654819Y-99615827D01*
X123654819Y-99615827D02*
X123607200Y-99568208D01*
X123607200Y-99568208D02*
X123559580Y-99615827D01*
X123559580Y-99615827D02*
X123654819Y-99615827D01*
X123035771Y-99615827D02*
X123083390Y-99663446D01*
X123083390Y-99663446D02*
X123131009Y-99615827D01*
X123131009Y-99615827D02*
X123083390Y-99568208D01*
X123083390Y-99568208D02*
X123035771Y-99615827D01*
X123035771Y-99615827D02*
X123131009Y-99615827D01*
X123654819Y-101377731D02*
X123654819Y-100806303D01*
X123654819Y-101092017D02*
X122654819Y-101092017D01*
X122654819Y-101092017D02*
X122797676Y-100996779D01*
X122797676Y-100996779D02*
X122892914Y-100901541D01*
X122892914Y-100901541D02*
X122940533Y-100806303D01*
X122654819Y-101711065D02*
X123654819Y-101949160D01*
X123654819Y-101949160D02*
X122940533Y-102139636D01*
X122940533Y-102139636D02*
X123654819Y-102330112D01*
X123654819Y-102330112D02*
X122654819Y-102568208D01*
X123654819Y-102949160D02*
X122654819Y-102949160D01*
X123654819Y-103996778D02*
X123178628Y-103663445D01*
X123654819Y-103425350D02*
X122654819Y-103425350D01*
X122654819Y-103425350D02*
X122654819Y-103806302D01*
X122654819Y-103806302D02*
X122702438Y-103901540D01*
X122702438Y-103901540D02*
X122750057Y-103949159D01*
X122750057Y-103949159D02*
X122845295Y-103996778D01*
X122845295Y-103996778D02*
X122988152Y-103996778D01*
X122988152Y-103996778D02*
X123083390Y-103949159D01*
X123083390Y-103949159D02*
X123131009Y-103901540D01*
X123131009Y-103901540D02*
X123178628Y-103806302D01*
X123178628Y-103806302D02*
X123178628Y-103425350D01*
X123131009Y-104425350D02*
X123131009Y-104758683D01*
X123654819Y-104901540D02*
X123654819Y-104425350D01*
X123654819Y-104425350D02*
X122654819Y-104425350D01*
X122654819Y-104425350D02*
X122654819Y-104901540D01*
X123131009Y-106092017D02*
X123131009Y-106425350D01*
X123654819Y-106568207D02*
X123654819Y-106092017D01*
X123654819Y-106092017D02*
X122654819Y-106092017D01*
X122654819Y-106092017D02*
X122654819Y-106568207D01*
X122988152Y-106996779D02*
X123654819Y-106996779D01*
X123083390Y-106996779D02*
X123035771Y-107044398D01*
X123035771Y-107044398D02*
X122988152Y-107139636D01*
X122988152Y-107139636D02*
X122988152Y-107282493D01*
X122988152Y-107282493D02*
X123035771Y-107377731D01*
X123035771Y-107377731D02*
X123131009Y-107425350D01*
X123131009Y-107425350D02*
X123654819Y-107425350D01*
X123654819Y-108330112D02*
X123131009Y-108330112D01*
X123131009Y-108330112D02*
X123035771Y-108282493D01*
X123035771Y-108282493D02*
X122988152Y-108187255D01*
X122988152Y-108187255D02*
X122988152Y-107996779D01*
X122988152Y-107996779D02*
X123035771Y-107901541D01*
X123607200Y-108330112D02*
X123654819Y-108234874D01*
X123654819Y-108234874D02*
X123654819Y-107996779D01*
X123654819Y-107996779D02*
X123607200Y-107901541D01*
X123607200Y-107901541D02*
X123511961Y-107853922D01*
X123511961Y-107853922D02*
X123416723Y-107853922D01*
X123416723Y-107853922D02*
X123321485Y-107901541D01*
X123321485Y-107901541D02*
X123273866Y-107996779D01*
X123273866Y-107996779D02*
X123273866Y-108234874D01*
X123273866Y-108234874D02*
X123226247Y-108330112D01*
X123654819Y-108806303D02*
X122654819Y-108806303D01*
X123035771Y-108806303D02*
X122988152Y-108901541D01*
X122988152Y-108901541D02*
X122988152Y-109092017D01*
X122988152Y-109092017D02*
X123035771Y-109187255D01*
X123035771Y-109187255D02*
X123083390Y-109234874D01*
X123083390Y-109234874D02*
X123178628Y-109282493D01*
X123178628Y-109282493D02*
X123464342Y-109282493D01*
X123464342Y-109282493D02*
X123559580Y-109234874D01*
X123559580Y-109234874D02*
X123607200Y-109187255D01*
X123607200Y-109187255D02*
X123654819Y-109092017D01*
X123654819Y-109092017D02*
X123654819Y-108901541D01*
X123654819Y-108901541D02*
X123607200Y-108806303D01*
X123654819Y-109853922D02*
X123607200Y-109758684D01*
X123607200Y-109758684D02*
X123511961Y-109711065D01*
X123511961Y-109711065D02*
X122654819Y-109711065D01*
X123607200Y-110615827D02*
X123654819Y-110520589D01*
X123654819Y-110520589D02*
X123654819Y-110330113D01*
X123654819Y-110330113D02*
X123607200Y-110234875D01*
X123607200Y-110234875D02*
X123511961Y-110187256D01*
X123511961Y-110187256D02*
X123131009Y-110187256D01*
X123131009Y-110187256D02*
X123035771Y-110234875D01*
X123035771Y-110234875D02*
X122988152Y-110330113D01*
X122988152Y-110330113D02*
X122988152Y-110520589D01*
X122988152Y-110520589D02*
X123035771Y-110615827D01*
X123035771Y-110615827D02*
X123131009Y-110663446D01*
X123131009Y-110663446D02*
X123226247Y-110663446D01*
X123226247Y-110663446D02*
X123321485Y-110187256D01*
X122654819Y-112330113D02*
X122654819Y-111853923D01*
X122654819Y-111853923D02*
X123131009Y-111806304D01*
X123131009Y-111806304D02*
X123083390Y-111853923D01*
X123083390Y-111853923D02*
X123035771Y-111949161D01*
X123035771Y-111949161D02*
X123035771Y-112187256D01*
X123035771Y-112187256D02*
X123083390Y-112282494D01*
X123083390Y-112282494D02*
X123131009Y-112330113D01*
X123131009Y-112330113D02*
X123226247Y-112377732D01*
X123226247Y-112377732D02*
X123464342Y-112377732D01*
X123464342Y-112377732D02*
X123559580Y-112330113D01*
X123559580Y-112330113D02*
X123607200Y-112282494D01*
X123607200Y-112282494D02*
X123654819Y-112187256D01*
X123654819Y-112187256D02*
X123654819Y-111949161D01*
X123654819Y-111949161D02*
X123607200Y-111853923D01*
X123607200Y-111853923D02*
X123559580Y-111806304D01*
X122654819Y-112663447D02*
X123654819Y-112996780D01*
X123654819Y-112996780D02*
X122654819Y-113330113D01*
X120789104Y-95949160D02*
X120789104Y-96425350D01*
X121074819Y-95853922D02*
X120074819Y-96187255D01*
X120074819Y-96187255D02*
X121074819Y-96520588D01*
X120408152Y-96853922D02*
X121408152Y-96853922D01*
X120455771Y-96853922D02*
X120408152Y-96949160D01*
X120408152Y-96949160D02*
X120408152Y-97139636D01*
X120408152Y-97139636D02*
X120455771Y-97234874D01*
X120455771Y-97234874D02*
X120503390Y-97282493D01*
X120503390Y-97282493D02*
X120598628Y-97330112D01*
X120598628Y-97330112D02*
X120884342Y-97330112D01*
X120884342Y-97330112D02*
X120979580Y-97282493D01*
X120979580Y-97282493D02*
X121027200Y-97234874D01*
X121027200Y-97234874D02*
X121074819Y-97139636D01*
X121074819Y-97139636D02*
X121074819Y-96949160D01*
X121074819Y-96949160D02*
X121027200Y-96853922D01*
X120408152Y-97758684D02*
X121408152Y-97758684D01*
X120455771Y-97758684D02*
X120408152Y-97853922D01*
X120408152Y-97853922D02*
X120408152Y-98044398D01*
X120408152Y-98044398D02*
X120455771Y-98139636D01*
X120455771Y-98139636D02*
X120503390Y-98187255D01*
X120503390Y-98187255D02*
X120598628Y-98234874D01*
X120598628Y-98234874D02*
X120884342Y-98234874D01*
X120884342Y-98234874D02*
X120979580Y-98187255D01*
X120979580Y-98187255D02*
X121027200Y-98139636D01*
X121027200Y-98139636D02*
X121074819Y-98044398D01*
X121074819Y-98044398D02*
X121074819Y-97853922D01*
X121074819Y-97853922D02*
X121027200Y-97758684D01*
X120074819Y-98568208D02*
X120074819Y-99187255D01*
X120074819Y-99187255D02*
X120455771Y-98853922D01*
X120455771Y-98853922D02*
X120455771Y-98996779D01*
X120455771Y-98996779D02*
X120503390Y-99092017D01*
X120503390Y-99092017D02*
X120551009Y-99139636D01*
X120551009Y-99139636D02*
X120646247Y-99187255D01*
X120646247Y-99187255D02*
X120884342Y-99187255D01*
X120884342Y-99187255D02*
X120979580Y-99139636D01*
X120979580Y-99139636D02*
X121027200Y-99092017D01*
X121027200Y-99092017D02*
X121074819Y-98996779D01*
X121074819Y-98996779D02*
X121074819Y-98711065D01*
X121074819Y-98711065D02*
X121027200Y-98615827D01*
X121027200Y-98615827D02*
X120979580Y-98568208D01*
X120979580Y-99615827D02*
X121027200Y-99663446D01*
X121027200Y-99663446D02*
X121074819Y-99615827D01*
X121074819Y-99615827D02*
X121027200Y-99568208D01*
X121027200Y-99568208D02*
X120979580Y-99615827D01*
X120979580Y-99615827D02*
X121074819Y-99615827D01*
X120455771Y-99615827D02*
X120503390Y-99663446D01*
X120503390Y-99663446D02*
X120551009Y-99615827D01*
X120551009Y-99615827D02*
X120503390Y-99568208D01*
X120503390Y-99568208D02*
X120455771Y-99615827D01*
X120455771Y-99615827D02*
X120551009Y-99615827D01*
X121074819Y-101377731D02*
X121074819Y-100806303D01*
X121074819Y-101092017D02*
X120074819Y-101092017D01*
X120074819Y-101092017D02*
X120217676Y-100996779D01*
X120217676Y-100996779D02*
X120312914Y-100901541D01*
X120312914Y-100901541D02*
X120360533Y-100806303D01*
X120074819Y-101711065D02*
X121074819Y-101949160D01*
X121074819Y-101949160D02*
X120360533Y-102139636D01*
X120360533Y-102139636D02*
X121074819Y-102330112D01*
X121074819Y-102330112D02*
X120074819Y-102568208D01*
X121074819Y-102949160D02*
X120074819Y-102949160D01*
X121074819Y-103996778D02*
X120598628Y-103663445D01*
X121074819Y-103425350D02*
X120074819Y-103425350D01*
X120074819Y-103425350D02*
X120074819Y-103806302D01*
X120074819Y-103806302D02*
X120122438Y-103901540D01*
X120122438Y-103901540D02*
X120170057Y-103949159D01*
X120170057Y-103949159D02*
X120265295Y-103996778D01*
X120265295Y-103996778D02*
X120408152Y-103996778D01*
X120408152Y-103996778D02*
X120503390Y-103949159D01*
X120503390Y-103949159D02*
X120551009Y-103901540D01*
X120551009Y-103901540D02*
X120598628Y-103806302D01*
X120598628Y-103806302D02*
X120598628Y-103425350D01*
X120551009Y-104425350D02*
X120551009Y-104758683D01*
X121074819Y-104901540D02*
X121074819Y-104425350D01*
X121074819Y-104425350D02*
X120074819Y-104425350D01*
X120074819Y-104425350D02*
X120074819Y-104901540D01*
X120551009Y-106425350D02*
X120551009Y-106092017D01*
X121074819Y-106092017D02*
X120074819Y-106092017D01*
X120074819Y-106092017D02*
X120074819Y-106568207D01*
X121074819Y-107377731D02*
X120551009Y-107377731D01*
X120551009Y-107377731D02*
X120455771Y-107330112D01*
X120455771Y-107330112D02*
X120408152Y-107234874D01*
X120408152Y-107234874D02*
X120408152Y-107044398D01*
X120408152Y-107044398D02*
X120455771Y-106949160D01*
X121027200Y-107377731D02*
X121074819Y-107282493D01*
X121074819Y-107282493D02*
X121074819Y-107044398D01*
X121074819Y-107044398D02*
X121027200Y-106949160D01*
X121027200Y-106949160D02*
X120931961Y-106901541D01*
X120931961Y-106901541D02*
X120836723Y-106901541D01*
X120836723Y-106901541D02*
X120741485Y-106949160D01*
X120741485Y-106949160D02*
X120693866Y-107044398D01*
X120693866Y-107044398D02*
X120693866Y-107282493D01*
X120693866Y-107282493D02*
X120646247Y-107377731D01*
X120408152Y-108282493D02*
X121074819Y-108282493D01*
X120408152Y-107853922D02*
X120931961Y-107853922D01*
X120931961Y-107853922D02*
X121027200Y-107901541D01*
X121027200Y-107901541D02*
X121074819Y-107996779D01*
X121074819Y-107996779D02*
X121074819Y-108139636D01*
X121074819Y-108139636D02*
X121027200Y-108234874D01*
X121027200Y-108234874D02*
X120979580Y-108282493D01*
X121074819Y-108901541D02*
X121027200Y-108806303D01*
X121027200Y-108806303D02*
X120931961Y-108758684D01*
X120931961Y-108758684D02*
X120074819Y-108758684D01*
X120408152Y-109139637D02*
X120408152Y-109520589D01*
X120074819Y-109282494D02*
X120931961Y-109282494D01*
X120931961Y-109282494D02*
X121027200Y-109330113D01*
X121027200Y-109330113D02*
X121074819Y-109425351D01*
X121074819Y-109425351D02*
X121074819Y-109520589D01*
X128369104Y-95949160D02*
X128369104Y-96425350D01*
X128654819Y-95853922D02*
X127654819Y-96187255D01*
X127654819Y-96187255D02*
X128654819Y-96520588D01*
X127988152Y-96853922D02*
X128988152Y-96853922D01*
X128035771Y-96853922D02*
X127988152Y-96949160D01*
X127988152Y-96949160D02*
X127988152Y-97139636D01*
X127988152Y-97139636D02*
X128035771Y-97234874D01*
X128035771Y-97234874D02*
X128083390Y-97282493D01*
X128083390Y-97282493D02*
X128178628Y-97330112D01*
X128178628Y-97330112D02*
X128464342Y-97330112D01*
X128464342Y-97330112D02*
X128559580Y-97282493D01*
X128559580Y-97282493D02*
X128607200Y-97234874D01*
X128607200Y-97234874D02*
X128654819Y-97139636D01*
X128654819Y-97139636D02*
X128654819Y-96949160D01*
X128654819Y-96949160D02*
X128607200Y-96853922D01*
X127988152Y-97758684D02*
X128988152Y-97758684D01*
X128035771Y-97758684D02*
X127988152Y-97853922D01*
X127988152Y-97853922D02*
X127988152Y-98044398D01*
X127988152Y-98044398D02*
X128035771Y-98139636D01*
X128035771Y-98139636D02*
X128083390Y-98187255D01*
X128083390Y-98187255D02*
X128178628Y-98234874D01*
X128178628Y-98234874D02*
X128464342Y-98234874D01*
X128464342Y-98234874D02*
X128559580Y-98187255D01*
X128559580Y-98187255D02*
X128607200Y-98139636D01*
X128607200Y-98139636D02*
X128654819Y-98044398D01*
X128654819Y-98044398D02*
X128654819Y-97853922D01*
X128654819Y-97853922D02*
X128607200Y-97758684D01*
X127654819Y-99092017D02*
X127654819Y-98901541D01*
X127654819Y-98901541D02*
X127702438Y-98806303D01*
X127702438Y-98806303D02*
X127750057Y-98758684D01*
X127750057Y-98758684D02*
X127892914Y-98663446D01*
X127892914Y-98663446D02*
X128083390Y-98615827D01*
X128083390Y-98615827D02*
X128464342Y-98615827D01*
X128464342Y-98615827D02*
X128559580Y-98663446D01*
X128559580Y-98663446D02*
X128607200Y-98711065D01*
X128607200Y-98711065D02*
X128654819Y-98806303D01*
X128654819Y-98806303D02*
X128654819Y-98996779D01*
X128654819Y-98996779D02*
X128607200Y-99092017D01*
X128607200Y-99092017D02*
X128559580Y-99139636D01*
X128559580Y-99139636D02*
X128464342Y-99187255D01*
X128464342Y-99187255D02*
X128226247Y-99187255D01*
X128226247Y-99187255D02*
X128131009Y-99139636D01*
X128131009Y-99139636D02*
X128083390Y-99092017D01*
X128083390Y-99092017D02*
X128035771Y-98996779D01*
X128035771Y-98996779D02*
X128035771Y-98806303D01*
X128035771Y-98806303D02*
X128083390Y-98711065D01*
X128083390Y-98711065D02*
X128131009Y-98663446D01*
X128131009Y-98663446D02*
X128226247Y-98615827D01*
X128559580Y-99615827D02*
X128607200Y-99663446D01*
X128607200Y-99663446D02*
X128654819Y-99615827D01*
X128654819Y-99615827D02*
X128607200Y-99568208D01*
X128607200Y-99568208D02*
X128559580Y-99615827D01*
X128559580Y-99615827D02*
X128654819Y-99615827D01*
X128035771Y-99615827D02*
X128083390Y-99663446D01*
X128083390Y-99663446D02*
X128131009Y-99615827D01*
X128131009Y-99615827D02*
X128083390Y-99568208D01*
X128083390Y-99568208D02*
X128035771Y-99615827D01*
X128035771Y-99615827D02*
X128131009Y-99615827D01*
X128131009Y-101187255D02*
X128178628Y-101330112D01*
X128178628Y-101330112D02*
X128226247Y-101377731D01*
X128226247Y-101377731D02*
X128321485Y-101425350D01*
X128321485Y-101425350D02*
X128464342Y-101425350D01*
X128464342Y-101425350D02*
X128559580Y-101377731D01*
X128559580Y-101377731D02*
X128607200Y-101330112D01*
X128607200Y-101330112D02*
X128654819Y-101234874D01*
X128654819Y-101234874D02*
X128654819Y-100853922D01*
X128654819Y-100853922D02*
X127654819Y-100853922D01*
X127654819Y-100853922D02*
X127654819Y-101187255D01*
X127654819Y-101187255D02*
X127702438Y-101282493D01*
X127702438Y-101282493D02*
X127750057Y-101330112D01*
X127750057Y-101330112D02*
X127845295Y-101377731D01*
X127845295Y-101377731D02*
X127940533Y-101377731D01*
X127940533Y-101377731D02*
X128035771Y-101330112D01*
X128035771Y-101330112D02*
X128083390Y-101282493D01*
X128083390Y-101282493D02*
X128131009Y-101187255D01*
X128131009Y-101187255D02*
X128131009Y-100853922D01*
X128654819Y-101853922D02*
X127988152Y-101853922D01*
X127654819Y-101853922D02*
X127702438Y-101806303D01*
X127702438Y-101806303D02*
X127750057Y-101853922D01*
X127750057Y-101853922D02*
X127702438Y-101901541D01*
X127702438Y-101901541D02*
X127654819Y-101853922D01*
X127654819Y-101853922D02*
X127750057Y-101853922D01*
X127988152Y-102330112D02*
X128654819Y-102330112D01*
X128083390Y-102330112D02*
X128035771Y-102377731D01*
X128035771Y-102377731D02*
X127988152Y-102472969D01*
X127988152Y-102472969D02*
X127988152Y-102615826D01*
X127988152Y-102615826D02*
X128035771Y-102711064D01*
X128035771Y-102711064D02*
X128131009Y-102758683D01*
X128131009Y-102758683D02*
X128654819Y-102758683D01*
X128654819Y-103663445D02*
X128131009Y-103663445D01*
X128131009Y-103663445D02*
X128035771Y-103615826D01*
X128035771Y-103615826D02*
X127988152Y-103520588D01*
X127988152Y-103520588D02*
X127988152Y-103330112D01*
X127988152Y-103330112D02*
X128035771Y-103234874D01*
X128607200Y-103663445D02*
X128654819Y-103568207D01*
X128654819Y-103568207D02*
X128654819Y-103330112D01*
X128654819Y-103330112D02*
X128607200Y-103234874D01*
X128607200Y-103234874D02*
X128511961Y-103187255D01*
X128511961Y-103187255D02*
X128416723Y-103187255D01*
X128416723Y-103187255D02*
X128321485Y-103234874D01*
X128321485Y-103234874D02*
X128273866Y-103330112D01*
X128273866Y-103330112D02*
X128273866Y-103568207D01*
X128273866Y-103568207D02*
X128226247Y-103663445D01*
X128654819Y-104139636D02*
X127988152Y-104139636D01*
X128178628Y-104139636D02*
X128083390Y-104187255D01*
X128083390Y-104187255D02*
X128035771Y-104234874D01*
X128035771Y-104234874D02*
X127988152Y-104330112D01*
X127988152Y-104330112D02*
X127988152Y-104425350D01*
X127988152Y-104663446D02*
X128654819Y-104901541D01*
X127988152Y-105139636D02*
X128654819Y-104901541D01*
X128654819Y-104901541D02*
X128892914Y-104806303D01*
X128892914Y-104806303D02*
X128940533Y-104758684D01*
X128940533Y-104758684D02*
X128988152Y-104663446D01*
X128654819Y-106282494D02*
X127654819Y-106282494D01*
X127988152Y-106758684D02*
X128654819Y-106758684D01*
X128083390Y-106758684D02*
X128035771Y-106806303D01*
X128035771Y-106806303D02*
X127988152Y-106901541D01*
X127988152Y-106901541D02*
X127988152Y-107044398D01*
X127988152Y-107044398D02*
X128035771Y-107139636D01*
X128035771Y-107139636D02*
X128131009Y-107187255D01*
X128131009Y-107187255D02*
X128654819Y-107187255D01*
X127988152Y-107663446D02*
X128988152Y-107663446D01*
X128035771Y-107663446D02*
X127988152Y-107758684D01*
X127988152Y-107758684D02*
X127988152Y-107949160D01*
X127988152Y-107949160D02*
X128035771Y-108044398D01*
X128035771Y-108044398D02*
X128083390Y-108092017D01*
X128083390Y-108092017D02*
X128178628Y-108139636D01*
X128178628Y-108139636D02*
X128464342Y-108139636D01*
X128464342Y-108139636D02*
X128559580Y-108092017D01*
X128559580Y-108092017D02*
X128607200Y-108044398D01*
X128607200Y-108044398D02*
X128654819Y-107949160D01*
X128654819Y-107949160D02*
X128654819Y-107758684D01*
X128654819Y-107758684D02*
X128607200Y-107663446D01*
X127988152Y-108996779D02*
X128654819Y-108996779D01*
X127988152Y-108568208D02*
X128511961Y-108568208D01*
X128511961Y-108568208D02*
X128607200Y-108615827D01*
X128607200Y-108615827D02*
X128654819Y-108711065D01*
X128654819Y-108711065D02*
X128654819Y-108853922D01*
X128654819Y-108853922D02*
X128607200Y-108949160D01*
X128607200Y-108949160D02*
X128559580Y-108996779D01*
X127988152Y-109330113D02*
X127988152Y-109711065D01*
X127654819Y-109472970D02*
X128511961Y-109472970D01*
X128511961Y-109472970D02*
X128607200Y-109520589D01*
X128607200Y-109520589D02*
X128654819Y-109615827D01*
X128654819Y-109615827D02*
X128654819Y-109711065D01*
X127750057Y-110758685D02*
X127702438Y-110806304D01*
X127702438Y-110806304D02*
X127654819Y-110901542D01*
X127654819Y-110901542D02*
X127654819Y-111139637D01*
X127654819Y-111139637D02*
X127702438Y-111234875D01*
X127702438Y-111234875D02*
X127750057Y-111282494D01*
X127750057Y-111282494D02*
X127845295Y-111330113D01*
X127845295Y-111330113D02*
X127940533Y-111330113D01*
X127940533Y-111330113D02*
X128083390Y-111282494D01*
X128083390Y-111282494D02*
X128654819Y-110711066D01*
X128654819Y-110711066D02*
X128654819Y-111330113D01*
X107354819Y-95853922D02*
X108354819Y-96187255D01*
X108354819Y-96187255D02*
X107354819Y-96520588D01*
X108259580Y-97425350D02*
X108307200Y-97377731D01*
X108307200Y-97377731D02*
X108354819Y-97234874D01*
X108354819Y-97234874D02*
X108354819Y-97139636D01*
X108354819Y-97139636D02*
X108307200Y-96996779D01*
X108307200Y-96996779D02*
X108211961Y-96901541D01*
X108211961Y-96901541D02*
X108116723Y-96853922D01*
X108116723Y-96853922D02*
X107926247Y-96806303D01*
X107926247Y-96806303D02*
X107783390Y-96806303D01*
X107783390Y-96806303D02*
X107592914Y-96853922D01*
X107592914Y-96853922D02*
X107497676Y-96901541D01*
X107497676Y-96901541D02*
X107402438Y-96996779D01*
X107402438Y-96996779D02*
X107354819Y-97139636D01*
X107354819Y-97139636D02*
X107354819Y-97234874D01*
X107354819Y-97234874D02*
X107402438Y-97377731D01*
X107402438Y-97377731D02*
X107450057Y-97425350D01*
X108259580Y-98425350D02*
X108307200Y-98377731D01*
X108307200Y-98377731D02*
X108354819Y-98234874D01*
X108354819Y-98234874D02*
X108354819Y-98139636D01*
X108354819Y-98139636D02*
X108307200Y-97996779D01*
X108307200Y-97996779D02*
X108211961Y-97901541D01*
X108211961Y-97901541D02*
X108116723Y-97853922D01*
X108116723Y-97853922D02*
X107926247Y-97806303D01*
X107926247Y-97806303D02*
X107783390Y-97806303D01*
X107783390Y-97806303D02*
X107592914Y-97853922D01*
X107592914Y-97853922D02*
X107497676Y-97901541D01*
X107497676Y-97901541D02*
X107402438Y-97996779D01*
X107402438Y-97996779D02*
X107354819Y-98139636D01*
X107354819Y-98139636D02*
X107354819Y-98234874D01*
X107354819Y-98234874D02*
X107402438Y-98377731D01*
X107402438Y-98377731D02*
X107450057Y-98425350D01*
X107450057Y-98806303D02*
X107402438Y-98853922D01*
X107402438Y-98853922D02*
X107354819Y-98949160D01*
X107354819Y-98949160D02*
X107354819Y-99187255D01*
X107354819Y-99187255D02*
X107402438Y-99282493D01*
X107402438Y-99282493D02*
X107450057Y-99330112D01*
X107450057Y-99330112D02*
X107545295Y-99377731D01*
X107545295Y-99377731D02*
X107640533Y-99377731D01*
X107640533Y-99377731D02*
X107783390Y-99330112D01*
X107783390Y-99330112D02*
X108354819Y-98758684D01*
X108354819Y-98758684D02*
X108354819Y-99377731D01*
X108259580Y-99806303D02*
X108307200Y-99853922D01*
X108307200Y-99853922D02*
X108354819Y-99806303D01*
X108354819Y-99806303D02*
X108307200Y-99758684D01*
X108307200Y-99758684D02*
X108259580Y-99806303D01*
X108259580Y-99806303D02*
X108354819Y-99806303D01*
X107735771Y-99806303D02*
X107783390Y-99853922D01*
X107783390Y-99853922D02*
X107831009Y-99806303D01*
X107831009Y-99806303D02*
X107783390Y-99758684D01*
X107783390Y-99758684D02*
X107735771Y-99806303D01*
X107735771Y-99806303D02*
X107831009Y-99806303D01*
X107354819Y-101520588D02*
X107354819Y-101044398D01*
X107354819Y-101044398D02*
X107831009Y-100996779D01*
X107831009Y-100996779D02*
X107783390Y-101044398D01*
X107783390Y-101044398D02*
X107735771Y-101139636D01*
X107735771Y-101139636D02*
X107735771Y-101377731D01*
X107735771Y-101377731D02*
X107783390Y-101472969D01*
X107783390Y-101472969D02*
X107831009Y-101520588D01*
X107831009Y-101520588D02*
X107926247Y-101568207D01*
X107926247Y-101568207D02*
X108164342Y-101568207D01*
X108164342Y-101568207D02*
X108259580Y-101520588D01*
X108259580Y-101520588D02*
X108307200Y-101472969D01*
X108307200Y-101472969D02*
X108354819Y-101377731D01*
X108354819Y-101377731D02*
X108354819Y-101139636D01*
X108354819Y-101139636D02*
X108307200Y-101044398D01*
X108307200Y-101044398D02*
X108259580Y-100996779D01*
X107354819Y-101853922D02*
X108354819Y-102187255D01*
X108354819Y-102187255D02*
X107354819Y-102520588D01*
X130969104Y-95949160D02*
X130969104Y-96425350D01*
X131254819Y-95853922D02*
X130254819Y-96187255D01*
X130254819Y-96187255D02*
X131254819Y-96520588D01*
X130588152Y-96853922D02*
X131588152Y-96853922D01*
X130635771Y-96853922D02*
X130588152Y-96949160D01*
X130588152Y-96949160D02*
X130588152Y-97139636D01*
X130588152Y-97139636D02*
X130635771Y-97234874D01*
X130635771Y-97234874D02*
X130683390Y-97282493D01*
X130683390Y-97282493D02*
X130778628Y-97330112D01*
X130778628Y-97330112D02*
X131064342Y-97330112D01*
X131064342Y-97330112D02*
X131159580Y-97282493D01*
X131159580Y-97282493D02*
X131207200Y-97234874D01*
X131207200Y-97234874D02*
X131254819Y-97139636D01*
X131254819Y-97139636D02*
X131254819Y-96949160D01*
X131254819Y-96949160D02*
X131207200Y-96853922D01*
X130588152Y-97758684D02*
X131588152Y-97758684D01*
X130635771Y-97758684D02*
X130588152Y-97853922D01*
X130588152Y-97853922D02*
X130588152Y-98044398D01*
X130588152Y-98044398D02*
X130635771Y-98139636D01*
X130635771Y-98139636D02*
X130683390Y-98187255D01*
X130683390Y-98187255D02*
X130778628Y-98234874D01*
X130778628Y-98234874D02*
X131064342Y-98234874D01*
X131064342Y-98234874D02*
X131159580Y-98187255D01*
X131159580Y-98187255D02*
X131207200Y-98139636D01*
X131207200Y-98139636D02*
X131254819Y-98044398D01*
X131254819Y-98044398D02*
X131254819Y-97853922D01*
X131254819Y-97853922D02*
X131207200Y-97758684D01*
X130254819Y-98568208D02*
X130254819Y-99234874D01*
X130254819Y-99234874D02*
X131254819Y-98806303D01*
X131159580Y-99615827D02*
X131207200Y-99663446D01*
X131207200Y-99663446D02*
X131254819Y-99615827D01*
X131254819Y-99615827D02*
X131207200Y-99568208D01*
X131207200Y-99568208D02*
X131159580Y-99615827D01*
X131159580Y-99615827D02*
X131254819Y-99615827D01*
X130635771Y-99615827D02*
X130683390Y-99663446D01*
X130683390Y-99663446D02*
X130731009Y-99615827D01*
X130731009Y-99615827D02*
X130683390Y-99568208D01*
X130683390Y-99568208D02*
X130635771Y-99615827D01*
X130635771Y-99615827D02*
X130731009Y-99615827D01*
X131254819Y-100853922D02*
X130254819Y-100853922D01*
X130254819Y-100853922D02*
X131254819Y-101425350D01*
X131254819Y-101425350D02*
X130254819Y-101425350D01*
X131159580Y-102472969D02*
X131207200Y-102425350D01*
X131207200Y-102425350D02*
X131254819Y-102282493D01*
X131254819Y-102282493D02*
X131254819Y-102187255D01*
X131254819Y-102187255D02*
X131207200Y-102044398D01*
X131207200Y-102044398D02*
X131111961Y-101949160D01*
X131111961Y-101949160D02*
X131016723Y-101901541D01*
X131016723Y-101901541D02*
X130826247Y-101853922D01*
X130826247Y-101853922D02*
X130683390Y-101853922D01*
X130683390Y-101853922D02*
X130492914Y-101901541D01*
X130492914Y-101901541D02*
X130397676Y-101949160D01*
X130397676Y-101949160D02*
X130302438Y-102044398D01*
X130302438Y-102044398D02*
X130254819Y-102187255D01*
X130254819Y-102187255D02*
X130254819Y-102282493D01*
X130254819Y-102282493D02*
X130302438Y-102425350D01*
X130302438Y-102425350D02*
X130350057Y-102472969D01*
X115669104Y-95949160D02*
X115669104Y-96425350D01*
X115954819Y-95853922D02*
X114954819Y-96187255D01*
X114954819Y-96187255D02*
X115954819Y-96520588D01*
X115288152Y-96853922D02*
X116288152Y-96853922D01*
X115335771Y-96853922D02*
X115288152Y-96949160D01*
X115288152Y-96949160D02*
X115288152Y-97139636D01*
X115288152Y-97139636D02*
X115335771Y-97234874D01*
X115335771Y-97234874D02*
X115383390Y-97282493D01*
X115383390Y-97282493D02*
X115478628Y-97330112D01*
X115478628Y-97330112D02*
X115764342Y-97330112D01*
X115764342Y-97330112D02*
X115859580Y-97282493D01*
X115859580Y-97282493D02*
X115907200Y-97234874D01*
X115907200Y-97234874D02*
X115954819Y-97139636D01*
X115954819Y-97139636D02*
X115954819Y-96949160D01*
X115954819Y-96949160D02*
X115907200Y-96853922D01*
X115288152Y-97758684D02*
X116288152Y-97758684D01*
X115335771Y-97758684D02*
X115288152Y-97853922D01*
X115288152Y-97853922D02*
X115288152Y-98044398D01*
X115288152Y-98044398D02*
X115335771Y-98139636D01*
X115335771Y-98139636D02*
X115383390Y-98187255D01*
X115383390Y-98187255D02*
X115478628Y-98234874D01*
X115478628Y-98234874D02*
X115764342Y-98234874D01*
X115764342Y-98234874D02*
X115859580Y-98187255D01*
X115859580Y-98187255D02*
X115907200Y-98139636D01*
X115907200Y-98139636D02*
X115954819Y-98044398D01*
X115954819Y-98044398D02*
X115954819Y-97853922D01*
X115954819Y-97853922D02*
X115907200Y-97758684D01*
X115954819Y-99187255D02*
X115954819Y-98615827D01*
X115954819Y-98901541D02*
X114954819Y-98901541D01*
X114954819Y-98901541D02*
X115097676Y-98806303D01*
X115097676Y-98806303D02*
X115192914Y-98711065D01*
X115192914Y-98711065D02*
X115240533Y-98615827D01*
X115859580Y-99615827D02*
X115907200Y-99663446D01*
X115907200Y-99663446D02*
X115954819Y-99615827D01*
X115954819Y-99615827D02*
X115907200Y-99568208D01*
X115907200Y-99568208D02*
X115859580Y-99615827D01*
X115859580Y-99615827D02*
X115954819Y-99615827D01*
X115335771Y-99615827D02*
X115383390Y-99663446D01*
X115383390Y-99663446D02*
X115431009Y-99615827D01*
X115431009Y-99615827D02*
X115383390Y-99568208D01*
X115383390Y-99568208D02*
X115335771Y-99615827D01*
X115335771Y-99615827D02*
X115431009Y-99615827D01*
X115954819Y-100853922D02*
X114954819Y-100853922D01*
X114954819Y-100853922D02*
X114954819Y-101092017D01*
X114954819Y-101092017D02*
X115002438Y-101234874D01*
X115002438Y-101234874D02*
X115097676Y-101330112D01*
X115097676Y-101330112D02*
X115192914Y-101377731D01*
X115192914Y-101377731D02*
X115383390Y-101425350D01*
X115383390Y-101425350D02*
X115526247Y-101425350D01*
X115526247Y-101425350D02*
X115716723Y-101377731D01*
X115716723Y-101377731D02*
X115811961Y-101330112D01*
X115811961Y-101330112D02*
X115907200Y-101234874D01*
X115907200Y-101234874D02*
X115954819Y-101092017D01*
X115954819Y-101092017D02*
X115954819Y-100853922D01*
X115907200Y-101806303D02*
X115954819Y-101949160D01*
X115954819Y-101949160D02*
X115954819Y-102187255D01*
X115954819Y-102187255D02*
X115907200Y-102282493D01*
X115907200Y-102282493D02*
X115859580Y-102330112D01*
X115859580Y-102330112D02*
X115764342Y-102377731D01*
X115764342Y-102377731D02*
X115669104Y-102377731D01*
X115669104Y-102377731D02*
X115573866Y-102330112D01*
X115573866Y-102330112D02*
X115526247Y-102282493D01*
X115526247Y-102282493D02*
X115478628Y-102187255D01*
X115478628Y-102187255D02*
X115431009Y-101996779D01*
X115431009Y-101996779D02*
X115383390Y-101901541D01*
X115383390Y-101901541D02*
X115335771Y-101853922D01*
X115335771Y-101853922D02*
X115240533Y-101806303D01*
X115240533Y-101806303D02*
X115145295Y-101806303D01*
X115145295Y-101806303D02*
X115050057Y-101853922D01*
X115050057Y-101853922D02*
X115002438Y-101901541D01*
X115002438Y-101901541D02*
X114954819Y-101996779D01*
X114954819Y-101996779D02*
X114954819Y-102234874D01*
X114954819Y-102234874D02*
X115002438Y-102377731D01*
X115050057Y-102758684D02*
X115002438Y-102806303D01*
X115002438Y-102806303D02*
X114954819Y-102901541D01*
X114954819Y-102901541D02*
X114954819Y-103139636D01*
X114954819Y-103139636D02*
X115002438Y-103234874D01*
X115002438Y-103234874D02*
X115050057Y-103282493D01*
X115050057Y-103282493D02*
X115145295Y-103330112D01*
X115145295Y-103330112D02*
X115240533Y-103330112D01*
X115240533Y-103330112D02*
X115383390Y-103282493D01*
X115383390Y-103282493D02*
X115954819Y-102711065D01*
X115954819Y-102711065D02*
X115954819Y-103330112D01*
X115288152Y-104187255D02*
X115954819Y-104187255D01*
X114907200Y-103949160D02*
X115621485Y-103711065D01*
X115621485Y-103711065D02*
X115621485Y-104330112D01*
X115383390Y-104853922D02*
X115335771Y-104758684D01*
X115335771Y-104758684D02*
X115288152Y-104711065D01*
X115288152Y-104711065D02*
X115192914Y-104663446D01*
X115192914Y-104663446D02*
X115145295Y-104663446D01*
X115145295Y-104663446D02*
X115050057Y-104711065D01*
X115050057Y-104711065D02*
X115002438Y-104758684D01*
X115002438Y-104758684D02*
X114954819Y-104853922D01*
X114954819Y-104853922D02*
X114954819Y-105044398D01*
X114954819Y-105044398D02*
X115002438Y-105139636D01*
X115002438Y-105139636D02*
X115050057Y-105187255D01*
X115050057Y-105187255D02*
X115145295Y-105234874D01*
X115145295Y-105234874D02*
X115192914Y-105234874D01*
X115192914Y-105234874D02*
X115288152Y-105187255D01*
X115288152Y-105187255D02*
X115335771Y-105139636D01*
X115335771Y-105139636D02*
X115383390Y-105044398D01*
X115383390Y-105044398D02*
X115383390Y-104853922D01*
X115383390Y-104853922D02*
X115431009Y-104758684D01*
X115431009Y-104758684D02*
X115478628Y-104711065D01*
X115478628Y-104711065D02*
X115573866Y-104663446D01*
X115573866Y-104663446D02*
X115764342Y-104663446D01*
X115764342Y-104663446D02*
X115859580Y-104711065D01*
X115859580Y-104711065D02*
X115907200Y-104758684D01*
X115907200Y-104758684D02*
X115954819Y-104853922D01*
X115954819Y-104853922D02*
X115954819Y-105044398D01*
X115954819Y-105044398D02*
X115907200Y-105139636D01*
X115907200Y-105139636D02*
X115859580Y-105187255D01*
X115859580Y-105187255D02*
X115764342Y-105234874D01*
X115764342Y-105234874D02*
X115573866Y-105234874D01*
X115573866Y-105234874D02*
X115478628Y-105187255D01*
X115478628Y-105187255D02*
X115431009Y-105139636D01*
X115431009Y-105139636D02*
X115383390Y-105044398D01*
X115288152Y-106092017D02*
X115954819Y-106092017D01*
X114907200Y-105853922D02*
X115621485Y-105615827D01*
X115621485Y-105615827D02*
X115621485Y-106234874D01*
X115907200Y-107330113D02*
X115954819Y-107472970D01*
X115954819Y-107472970D02*
X115954819Y-107711065D01*
X115954819Y-107711065D02*
X115907200Y-107806303D01*
X115907200Y-107806303D02*
X115859580Y-107853922D01*
X115859580Y-107853922D02*
X115764342Y-107901541D01*
X115764342Y-107901541D02*
X115669104Y-107901541D01*
X115669104Y-107901541D02*
X115573866Y-107853922D01*
X115573866Y-107853922D02*
X115526247Y-107806303D01*
X115526247Y-107806303D02*
X115478628Y-107711065D01*
X115478628Y-107711065D02*
X115431009Y-107520589D01*
X115431009Y-107520589D02*
X115383390Y-107425351D01*
X115383390Y-107425351D02*
X115335771Y-107377732D01*
X115335771Y-107377732D02*
X115240533Y-107330113D01*
X115240533Y-107330113D02*
X115145295Y-107330113D01*
X115145295Y-107330113D02*
X115050057Y-107377732D01*
X115050057Y-107377732D02*
X115002438Y-107425351D01*
X115002438Y-107425351D02*
X114954819Y-107520589D01*
X114954819Y-107520589D02*
X114954819Y-107758684D01*
X114954819Y-107758684D02*
X115002438Y-107901541D01*
X115859580Y-108901541D02*
X115907200Y-108853922D01*
X115907200Y-108853922D02*
X115954819Y-108711065D01*
X115954819Y-108711065D02*
X115954819Y-108615827D01*
X115954819Y-108615827D02*
X115907200Y-108472970D01*
X115907200Y-108472970D02*
X115811961Y-108377732D01*
X115811961Y-108377732D02*
X115716723Y-108330113D01*
X115716723Y-108330113D02*
X115526247Y-108282494D01*
X115526247Y-108282494D02*
X115383390Y-108282494D01*
X115383390Y-108282494D02*
X115192914Y-108330113D01*
X115192914Y-108330113D02*
X115097676Y-108377732D01*
X115097676Y-108377732D02*
X115002438Y-108472970D01*
X115002438Y-108472970D02*
X114954819Y-108615827D01*
X114954819Y-108615827D02*
X114954819Y-108711065D01*
X114954819Y-108711065D02*
X115002438Y-108853922D01*
X115002438Y-108853922D02*
X115050057Y-108901541D01*
X115954819Y-109806303D02*
X115954819Y-109330113D01*
X115954819Y-109330113D02*
X114954819Y-109330113D01*
X114907200Y-110853922D02*
X116192914Y-109996780D01*
X115954819Y-111758684D02*
X115478628Y-111425351D01*
X115954819Y-111187256D02*
X114954819Y-111187256D01*
X114954819Y-111187256D02*
X114954819Y-111568208D01*
X114954819Y-111568208D02*
X115002438Y-111663446D01*
X115002438Y-111663446D02*
X115050057Y-111711065D01*
X115050057Y-111711065D02*
X115145295Y-111758684D01*
X115145295Y-111758684D02*
X115288152Y-111758684D01*
X115288152Y-111758684D02*
X115383390Y-111711065D01*
X115383390Y-111711065D02*
X115431009Y-111663446D01*
X115431009Y-111663446D02*
X115478628Y-111568208D01*
X115478628Y-111568208D02*
X115478628Y-111187256D01*
X114954819Y-112092018D02*
X115954819Y-112758684D01*
X114954819Y-112758684D02*
X115954819Y-112092018D01*
D11*
X87975689Y-117511775D02*
X87975689Y-118083203D01*
X87975689Y-118083203D02*
X88013784Y-118197489D01*
X88013784Y-118197489D02*
X88089975Y-118273680D01*
X88089975Y-118273680D02*
X88204260Y-118311775D01*
X88204260Y-118311775D02*
X88280451Y-118311775D01*
X87213784Y-118311775D02*
X87594736Y-118311775D01*
X87594736Y-118311775D02*
X87594736Y-117511775D01*
X86489974Y-118235584D02*
X86528070Y-118273680D01*
X86528070Y-118273680D02*
X86642355Y-118311775D01*
X86642355Y-118311775D02*
X86718546Y-118311775D01*
X86718546Y-118311775D02*
X86832832Y-118273680D01*
X86832832Y-118273680D02*
X86909022Y-118197489D01*
X86909022Y-118197489D02*
X86947117Y-118121299D01*
X86947117Y-118121299D02*
X86985213Y-117968918D01*
X86985213Y-117968918D02*
X86985213Y-117854632D01*
X86985213Y-117854632D02*
X86947117Y-117702251D01*
X86947117Y-117702251D02*
X86909022Y-117626060D01*
X86909022Y-117626060D02*
X86832832Y-117549870D01*
X86832832Y-117549870D02*
X86718546Y-117511775D01*
X86718546Y-117511775D02*
X86642355Y-117511775D01*
X86642355Y-117511775D02*
X86528070Y-117549870D01*
X86528070Y-117549870D02*
X86489974Y-117587965D01*
X85918546Y-117511775D02*
X85918546Y-118083203D01*
X85918546Y-118083203D02*
X85956641Y-118197489D01*
X85956641Y-118197489D02*
X86032832Y-118273680D01*
X86032832Y-118273680D02*
X86147117Y-118311775D01*
X86147117Y-118311775D02*
X86223308Y-118311775D01*
X85156641Y-118311775D02*
X85537593Y-118311775D01*
X85537593Y-118311775D02*
X85537593Y-117511775D01*
X84432831Y-118235584D02*
X84470927Y-118273680D01*
X84470927Y-118273680D02*
X84585212Y-118311775D01*
X84585212Y-118311775D02*
X84661403Y-118311775D01*
X84661403Y-118311775D02*
X84775689Y-118273680D01*
X84775689Y-118273680D02*
X84851879Y-118197489D01*
X84851879Y-118197489D02*
X84889974Y-118121299D01*
X84889974Y-118121299D02*
X84928070Y-117968918D01*
X84928070Y-117968918D02*
X84928070Y-117854632D01*
X84928070Y-117854632D02*
X84889974Y-117702251D01*
X84889974Y-117702251D02*
X84851879Y-117626060D01*
X84851879Y-117626060D02*
X84775689Y-117549870D01*
X84775689Y-117549870D02*
X84661403Y-117511775D01*
X84661403Y-117511775D02*
X84585212Y-117511775D01*
X84585212Y-117511775D02*
X84470927Y-117549870D01*
X84470927Y-117549870D02*
X84432831Y-117587965D01*
X83861403Y-117511775D02*
X83861403Y-118083203D01*
X83861403Y-118083203D02*
X83899498Y-118197489D01*
X83899498Y-118197489D02*
X83975689Y-118273680D01*
X83975689Y-118273680D02*
X84089974Y-118311775D01*
X84089974Y-118311775D02*
X84166165Y-118311775D01*
X83099498Y-118311775D02*
X83480450Y-118311775D01*
X83480450Y-118311775D02*
X83480450Y-117511775D01*
X82375688Y-118235584D02*
X82413784Y-118273680D01*
X82413784Y-118273680D02*
X82528069Y-118311775D01*
X82528069Y-118311775D02*
X82604260Y-118311775D01*
X82604260Y-118311775D02*
X82718546Y-118273680D01*
X82718546Y-118273680D02*
X82794736Y-118197489D01*
X82794736Y-118197489D02*
X82832831Y-118121299D01*
X82832831Y-118121299D02*
X82870927Y-117968918D01*
X82870927Y-117968918D02*
X82870927Y-117854632D01*
X82870927Y-117854632D02*
X82832831Y-117702251D01*
X82832831Y-117702251D02*
X82794736Y-117626060D01*
X82794736Y-117626060D02*
X82718546Y-117549870D01*
X82718546Y-117549870D02*
X82604260Y-117511775D01*
X82604260Y-117511775D02*
X82528069Y-117511775D01*
X82528069Y-117511775D02*
X82413784Y-117549870D01*
X82413784Y-117549870D02*
X82375688Y-117587965D01*
X81804260Y-117511775D02*
X81804260Y-118083203D01*
X81804260Y-118083203D02*
X81842355Y-118197489D01*
X81842355Y-118197489D02*
X81918546Y-118273680D01*
X81918546Y-118273680D02*
X82032831Y-118311775D01*
X82032831Y-118311775D02*
X82109022Y-118311775D01*
X81042355Y-118311775D02*
X81423307Y-118311775D01*
X81423307Y-118311775D02*
X81423307Y-117511775D01*
X80318545Y-118235584D02*
X80356641Y-118273680D01*
X80356641Y-118273680D02*
X80470926Y-118311775D01*
X80470926Y-118311775D02*
X80547117Y-118311775D01*
X80547117Y-118311775D02*
X80661403Y-118273680D01*
X80661403Y-118273680D02*
X80737593Y-118197489D01*
X80737593Y-118197489D02*
X80775688Y-118121299D01*
X80775688Y-118121299D02*
X80813784Y-117968918D01*
X80813784Y-117968918D02*
X80813784Y-117854632D01*
X80813784Y-117854632D02*
X80775688Y-117702251D01*
X80775688Y-117702251D02*
X80737593Y-117626060D01*
X80737593Y-117626060D02*
X80661403Y-117549870D01*
X80661403Y-117549870D02*
X80547117Y-117511775D01*
X80547117Y-117511775D02*
X80470926Y-117511775D01*
X80470926Y-117511775D02*
X80356641Y-117549870D01*
X80356641Y-117549870D02*
X80318545Y-117587965D01*
D10*
X132699771Y-91299999D02*
X133128342Y-91299999D01*
X133128342Y-91299999D02*
X133214057Y-91271428D01*
X133214057Y-91271428D02*
X133271200Y-91214285D01*
X133271200Y-91214285D02*
X133299771Y-91128571D01*
X133299771Y-91128571D02*
X133299771Y-91071428D01*
X133299771Y-91899999D02*
X133299771Y-91557142D01*
X133299771Y-91728571D02*
X132699771Y-91728571D01*
X132699771Y-91728571D02*
X132785485Y-91671428D01*
X132785485Y-91671428D02*
X132842628Y-91614285D01*
X132842628Y-91614285D02*
X132871200Y-91557142D01*
D12*
%TO.C,J1*%
X106570000Y-90200000D02*
X132090000Y-90200000D01*
X106570000Y-92860000D02*
X106570000Y-90200000D01*
X107520000Y-84200000D02*
X107520000Y-90200000D01*
X107520000Y-93257071D02*
X107520000Y-92860000D01*
X108280000Y-84200000D02*
X107520000Y-84200000D01*
X108280000Y-90200000D02*
X108280000Y-84200000D01*
X108280000Y-93257071D02*
X108280000Y-92860000D01*
X109170000Y-92860000D02*
X109170000Y-90200000D01*
X110060000Y-84200000D02*
X110060000Y-90200000D01*
X110060000Y-93257071D02*
X110060000Y-92860000D01*
X110820000Y-84200000D02*
X110060000Y-84200000D01*
X110820000Y-90200000D02*
X110820000Y-84200000D01*
X110820000Y-93257071D02*
X110820000Y-92860000D01*
X111710000Y-92860000D02*
X111710000Y-90200000D01*
X112600000Y-84200000D02*
X112600000Y-90200000D01*
X112600000Y-93257071D02*
X112600000Y-92860000D01*
X113360000Y-84200000D02*
X112600000Y-84200000D01*
X113360000Y-90200000D02*
X113360000Y-84200000D01*
X113360000Y-93257071D02*
X113360000Y-92860000D01*
X114250000Y-92860000D02*
X114250000Y-90200000D01*
X115140000Y-84200000D02*
X115140000Y-90200000D01*
X115140000Y-93257071D02*
X115140000Y-92860000D01*
X115900000Y-84200000D02*
X115140000Y-84200000D01*
X115900000Y-90200000D02*
X115900000Y-84200000D01*
X115900000Y-93257071D02*
X115900000Y-92860000D01*
X116790000Y-92860000D02*
X116790000Y-90200000D01*
X117680000Y-84200000D02*
X117680000Y-90200000D01*
X117680000Y-93257071D02*
X117680000Y-92860000D01*
X118440000Y-84200000D02*
X117680000Y-84200000D01*
X118440000Y-90200000D02*
X118440000Y-84200000D01*
X118440000Y-93257071D02*
X118440000Y-92860000D01*
X119330000Y-92860000D02*
X119330000Y-90200000D01*
X120220000Y-84200000D02*
X120220000Y-90200000D01*
X120220000Y-93257071D02*
X120220000Y-92860000D01*
X120980000Y-84200000D02*
X120220000Y-84200000D01*
X120980000Y-90200000D02*
X120980000Y-84200000D01*
X120980000Y-93257071D02*
X120980000Y-92860000D01*
X121870000Y-92860000D02*
X121870000Y-90200000D01*
X122760000Y-84200000D02*
X122760000Y-90200000D01*
X122760000Y-93257071D02*
X122760000Y-92860000D01*
X123520000Y-84200000D02*
X122760000Y-84200000D01*
X123520000Y-90200000D02*
X123520000Y-84200000D01*
X123520000Y-93257071D02*
X123520000Y-92860000D01*
X124410000Y-92860000D02*
X124410000Y-90200000D01*
X125300000Y-84200000D02*
X125300000Y-90200000D01*
X125300000Y-93257071D02*
X125300000Y-92860000D01*
X126060000Y-84200000D02*
X125300000Y-84200000D01*
X126060000Y-90200000D02*
X126060000Y-84200000D01*
X126060000Y-93257071D02*
X126060000Y-92860000D01*
X126950000Y-92860000D02*
X126950000Y-90200000D01*
X127840000Y-84200000D02*
X127840000Y-90200000D01*
X127840000Y-93257071D02*
X127840000Y-92860000D01*
X128600000Y-84200000D02*
X127840000Y-84200000D01*
X128600000Y-90200000D02*
X128600000Y-84200000D01*
X128600000Y-93257071D02*
X128600000Y-92860000D01*
X129490000Y-92860000D02*
X129490000Y-90200000D01*
X130380000Y-84200000D02*
X130380000Y-90200000D01*
X130380000Y-93190000D02*
X130380000Y-92860000D01*
X130480000Y-90200000D02*
X130480000Y-84200000D01*
X130600000Y-90200000D02*
X130600000Y-84200000D01*
X130720000Y-90200000D02*
X130720000Y-84200000D01*
X130760000Y-95570000D02*
X132030000Y-95570000D01*
X130840000Y-90200000D02*
X130840000Y-84200000D01*
X130960000Y-90200000D02*
X130960000Y-84200000D01*
X131080000Y-90200000D02*
X131080000Y-84200000D01*
X131140000Y-84200000D02*
X130380000Y-84200000D01*
X131140000Y-90200000D02*
X131140000Y-84200000D01*
X131140000Y-93190000D02*
X131140000Y-92860000D01*
X132030000Y-95570000D02*
X132030000Y-94300000D01*
X132090000Y-90200000D02*
X132090000Y-92860000D01*
X132090000Y-92860000D02*
X106570000Y-92860000D01*
%TD*%
M02*
