%TF.GenerationSoftware,KiCad,Pcbnew,9.0.3*%
%TF.CreationDate,2025-12-31T10:25:08+01:00*%
%TF.ProjectId,REG1-App-OneWire,52454731-2d41-4707-902d-4f6e65576972,V01.10*%
%TF.SameCoordinates,Original*%
%TF.FileFunction,Soldermask,Top*%
%TF.FilePolarity,Negative*%
%FSLAX46Y46*%
G04 Gerber Fmt 4.6, Leading zero omitted, Abs format (unit mm)*
G04 Created by KiCad (PCBNEW 9.0.3) date 2025-12-31 10:25:08*
%MOMM*%
%LPD*%
G01*
G04 APERTURE LIST*
G04 Aperture macros list*
%AMRoundRect*
0 Rectangle with rounded corners*
0 $1 Rounding radius*
0 $2 $3 $4 $5 $6 $7 $8 $9 X,Y pos of 4 corners*
0 Add a 4 corners polygon primitive as box body*
4,1,4,$2,$3,$4,$5,$6,$7,$8,$9,$2,$3,0*
0 Add four circle primitives for the rounded corners*
1,1,$1+$1,$2,$3*
1,1,$1+$1,$4,$5*
1,1,$1+$1,$6,$7*
1,1,$1+$1,$8,$9*
0 Add four rect primitives between the rounded corners*
20,1,$1+$1,$2,$3,$4,$5,0*
20,1,$1+$1,$4,$5,$6,$7,0*
20,1,$1+$1,$6,$7,$8,$9,0*
20,1,$1+$1,$8,$9,$2,$3,0*%
G04 Aperture macros list end*
%ADD10RoundRect,0.140000X-0.140000X-0.170000X0.140000X-0.170000X0.140000X0.170000X-0.140000X0.170000X0*%
%ADD11RoundRect,0.050800X-0.304800X-0.600000X0.304800X-0.600000X0.304800X0.600000X-0.304800X0.600000X0*%
%ADD12RoundRect,0.200000X-0.275000X0.200000X-0.275000X-0.200000X0.275000X-0.200000X0.275000X0.200000X0*%
%ADD13RoundRect,0.200000X0.200000X0.275000X-0.200000X0.275000X-0.200000X-0.275000X0.200000X-0.275000X0*%
%ADD14RoundRect,0.140000X0.140000X0.170000X-0.140000X0.170000X-0.140000X-0.170000X0.140000X-0.170000X0*%
%ADD15RoundRect,0.250000X-1.550000X0.650000X-1.550000X-0.650000X1.550000X-0.650000X1.550000X0.650000X0*%
%ADD16O,3.600000X1.800000*%
%ADD17RoundRect,0.200000X-0.200000X-0.275000X0.200000X-0.275000X0.200000X0.275000X-0.200000X0.275000X0*%
%ADD18RoundRect,0.250000X1.550000X-0.650000X1.550000X0.650000X-1.550000X0.650000X-1.550000X-0.650000X0*%
%ADD19RoundRect,0.140000X-0.170000X0.140000X-0.170000X-0.140000X0.170000X-0.140000X0.170000X0.140000X0*%
%ADD20RoundRect,0.112500X-0.187500X-0.112500X0.187500X-0.112500X0.187500X0.112500X-0.187500X0.112500X0*%
%ADD21RoundRect,0.150000X0.512500X0.150000X-0.512500X0.150000X-0.512500X-0.150000X0.512500X-0.150000X0*%
%ADD22RoundRect,0.050800X0.536000X-0.266000X0.536000X0.266000X-0.536000X0.266000X-0.536000X-0.266000X0*%
%ADD23RoundRect,0.140000X0.170000X-0.140000X0.170000X0.140000X-0.170000X0.140000X-0.170000X-0.140000X0*%
%ADD24RoundRect,0.150000X0.150000X-0.512500X0.150000X0.512500X-0.150000X0.512500X-0.150000X-0.512500X0*%
%ADD25O,0.675600X2.502100*%
%ADD26RoundRect,0.050800X0.350000X1.000000X-0.350000X1.000000X-0.350000X-1.000000X0.350000X-1.000000X0*%
%ADD27R,1.700000X1.700000*%
%ADD28O,1.700000X1.700000*%
G04 APERTURE END LIST*
D10*
%TO.C,C7*%
X108950000Y-113600000D03*
X109910000Y-113600000D03*
%TD*%
D11*
%TO.C,D1*%
X81580000Y-109800300D03*
X82850000Y-109800300D03*
X84120000Y-109800300D03*
X84120000Y-106345900D03*
X82850000Y-106345900D03*
X81580000Y-106345900D03*
%TD*%
D12*
%TO.C,R4*%
X143070000Y-100490000D03*
X143070000Y-102140000D03*
%TD*%
D13*
%TO.C,R10*%
X128040000Y-111070000D03*
X126390000Y-111070000D03*
%TD*%
D14*
%TO.C,C4*%
X109980000Y-98940000D03*
X109020000Y-98940000D03*
%TD*%
D13*
%TO.C,R5*%
X93415000Y-108120000D03*
X91765000Y-108120000D03*
%TD*%
D14*
%TO.C,C1*%
X88031800Y-110270000D03*
X87071800Y-110270000D03*
%TD*%
%TO.C,C5*%
X110000000Y-97730000D03*
X109040000Y-97730000D03*
%TD*%
%TO.C,C10*%
X102350000Y-98940000D03*
X101390000Y-98940000D03*
%TD*%
D13*
%TO.C,R9*%
X128015000Y-109190000D03*
X126365000Y-109190000D03*
%TD*%
D15*
%TO.C,J10*%
X76500000Y-98600000D03*
D16*
X76500000Y-102100000D03*
X76500000Y-105600000D03*
X76500000Y-109100000D03*
X76500000Y-112600000D03*
X76500000Y-116100000D03*
%TD*%
D13*
%TO.C,R6*%
X93415000Y-106400000D03*
X91765000Y-106400000D03*
%TD*%
D12*
%TO.C,R7*%
X143060000Y-103850000D03*
X143060000Y-105500000D03*
%TD*%
D13*
%TO.C,R1*%
X116540000Y-96730000D03*
X114890000Y-96730000D03*
%TD*%
D17*
%TO.C,R12*%
X124795000Y-96730000D03*
X123145000Y-96730000D03*
%TD*%
D18*
%TO.C,J2*%
X146500000Y-112660000D03*
D16*
X146500000Y-109160000D03*
X146500000Y-105660000D03*
X146500000Y-102160000D03*
%TD*%
D19*
%TO.C,C3*%
X86370000Y-113710000D03*
X86370000Y-114670000D03*
%TD*%
D20*
%TO.C,D2*%
X80752500Y-116110000D03*
X82852500Y-116110000D03*
%TD*%
D21*
%TO.C,D4*%
X134290000Y-111080000D03*
X134290000Y-109180000D03*
X132015000Y-110130000D03*
%TD*%
D13*
%TO.C,R11*%
X118950000Y-96730000D03*
X120600000Y-96730000D03*
%TD*%
D22*
%TO.C,U3*%
X89550000Y-108750000D03*
X89550000Y-107800000D03*
X89550000Y-106850000D03*
X87251800Y-106850000D03*
X87251800Y-107800000D03*
X87251800Y-108750000D03*
%TD*%
D23*
%TO.C,C2*%
X86360000Y-116975000D03*
X86360000Y-116015000D03*
%TD*%
D24*
%TO.C,U2*%
X88230000Y-116465000D03*
X89180000Y-116465000D03*
X90130000Y-116465000D03*
X90130000Y-114190000D03*
X88230000Y-114190000D03*
%TD*%
D23*
%TO.C,C9*%
X119860000Y-111880000D03*
X119860000Y-110920000D03*
%TD*%
D17*
%TO.C,R3*%
X91665000Y-113740000D03*
X93315000Y-113740000D03*
%TD*%
D12*
%TO.C,R2*%
X143060000Y-107470000D03*
X143060000Y-109120000D03*
%TD*%
D25*
%TO.C,U4*%
X110089900Y-100929400D03*
X108819900Y-100929400D03*
X107549900Y-100929400D03*
X106279900Y-100929400D03*
X105009900Y-100929400D03*
X103739900Y-100929400D03*
X102469900Y-100929400D03*
X101199900Y-100929400D03*
X101199900Y-110430100D03*
X102469900Y-110430100D03*
X103739900Y-110430100D03*
X105009900Y-110430100D03*
X106279900Y-110430100D03*
X107549900Y-110430100D03*
X108819900Y-110430100D03*
X110089900Y-110430100D03*
%TD*%
D10*
%TO.C,C6*%
X108960000Y-112450000D03*
X109920000Y-112450000D03*
%TD*%
D19*
%TO.C,C8*%
X119980000Y-99620000D03*
X119980000Y-100580000D03*
%TD*%
D26*
%TO.C,U5*%
X118310000Y-100229600D03*
X117040000Y-100229600D03*
X115770000Y-100229600D03*
X114500000Y-100229600D03*
X114500000Y-111129800D03*
X115770000Y-111129800D03*
X117040000Y-111129800D03*
X118310000Y-111129800D03*
%TD*%
D12*
%TO.C,R8*%
X143060000Y-110850000D03*
X143060000Y-112500000D03*
%TD*%
D27*
%TO.C,J1*%
X130760000Y-94300000D03*
D28*
X128220000Y-94300000D03*
X125680000Y-94300000D03*
X123140000Y-94300000D03*
X120600000Y-94300000D03*
X118060000Y-94300000D03*
X115520000Y-94300000D03*
X112980000Y-94300000D03*
X110440000Y-94300000D03*
X107900000Y-94300000D03*
%TD*%
M02*
