M48
; DRILL file {KiCad 9.0.3} date 2025-12-31T10:25:06+0100
; FORMAT={-:-/ absolute / metric / decimal}
; #@! TF.CreationDate,2025-12-31T10:25:06+01:00
; #@! TF.GenerationSoftware,Kicad,Pcbnew,9.0.3
; #@! TF.FileFunction,Plated,1,2,PTH
FMAT,2
METRIC
; #@! TA.AperFunction,Plated,PTH,ViaDrill
T1C0.300
; #@! TA.AperFunction,Plated,PTH,ComponentDrill
T2C1.000
; #@! TA.AperFunction,Plated,PTH,ComponentDrill
T3C1.200
%
G90
G05
T1
X82.87Y-105.0
X85.475Y-115.335
X86.15Y-106.85
X88.68Y-117.87
X89.05Y-110.27
X96.76Y-114.86
X96.99Y-115.8
X99.76Y-114.86
X100.66Y-115.8
X101.21Y-112.67
X102.38Y-97.94
X102.48Y-113.62
X103.74Y-98.34
X103.75Y-114.36
X105.01Y-98.34
X105.01Y-114.36
X106.27Y-98.34
X107.55Y-98.34
X109.02Y-114.58
X110.98Y-113.62
X111.46Y-116.87
X111.63Y-97.76
X112.61Y-115.94
X114.51Y-112.76
X115.83Y-97.85
X118.33Y-113.6
X119.99Y-98.66
X121.88Y-96.68
X125.43Y-113.6
X130.59Y-110.12
X144.56Y-100.5
X144.56Y-103.85
X144.56Y-107.46
X144.56Y-110.85
T2
X107.9Y-94.3
X110.44Y-94.3
X112.98Y-94.3
X115.52Y-94.3
X118.06Y-94.3
X120.6Y-94.3
X123.14Y-94.3
X125.68Y-94.3
X128.22Y-94.3
X130.76Y-94.3
T3
X76.5Y-98.6
X76.5Y-102.1
X76.5Y-105.6
X76.5Y-109.1
X76.5Y-112.6
X76.5Y-116.1
X146.5Y-102.16
X146.5Y-105.66
X146.5Y-109.16
X146.5Y-112.66
M30
